%
M48
M72
T01C0.0120
T02C0.0394
T03C0.0400
T04C0.1142
%
T01
X8684Y6051
X10724Y5871
X12224Y5751
X10724Y5271
X14024Y8691
X16124Y8631
X15884Y5271
X15944Y6411
X16604Y10551
X18884Y14391
X18644Y15531
X22004Y14271
X21344Y16191
X11984Y14931
X10604Y11991
X10724Y13191
X9344Y9591
X9404Y8451
X20624Y10671
X13904Y12711
X20984Y5871
X20984Y6951
X22544Y12291
X21464Y10311
X22424Y13911
X22964Y16971
X19244Y19431
X19244Y18471
X17084Y5451
X19784Y13851
X18344Y13731
X22424Y8991
X19904Y9291
X7844Y19851
X15464Y17931
X15464Y15951
X21044Y11271
X21044Y14211
X18704Y6711
X13124Y6951
X22844Y7731
X22904Y12771
X19364Y7671
X15764Y10431
X16004Y10731
X16304Y10971
X16664Y11151
X19064Y15951
X17864Y18411
X19784Y5391
X17444Y17331
X11204Y17391
X20144Y5631
X17624Y16851
X20144Y6171
X17864Y17091
X8024Y5571
X11924Y11211
X8084Y8151
X11624Y11391
X8084Y10911
X12224Y11751
X7784Y13731
X11984Y11991
X22604Y9651
X22544Y10071
T02
X6960Y20558
X6960Y21558
X7960Y20558
X7960Y21558
X8960Y20558
X8960Y21558
X9960Y20558
X9960Y21558
X10960Y20558
X10960Y21558
X11960Y20558
X11960Y21558
X12960Y20558
X12960Y21558
X13960Y20558
X13960Y21558
X14960Y20558
X14960Y21558
X15960Y20558
X15960Y21558
X16960Y20558
X16960Y21558
X17960Y20558
X17960Y21558
X18960Y20558
X18960Y21558
X8960Y18558
X9960Y18558
X10960Y18558
X11960Y18558
X8960Y19558
X9960Y19558
X10960Y19558
X11960Y19558
T03
X7120Y5676
X7120Y6676
X7097Y8195
X7097Y9195
X7097Y10951
X7097Y11951
X7097Y13707
X7097Y14707
T04
X16055Y7674
M30
