G75*
%MOIN*%
%OFA0B0*%
%FSLAX24Y24*%
%IPPOS*%
%LPD*%
%AMOC8*
5,1,8,0,0,1.08239X$1,22.5*
%
%ADD10C,0.0000*%
D10*
X005744Y004971D02*
X023460Y004971D01*
X023460Y017570D01*
X021492Y017570D01*
X021492Y022688D01*
X005744Y022688D01*
X005744Y004971D01*
X015484Y007674D02*
X015486Y007721D01*
X015492Y007768D01*
X015501Y007814D01*
X015515Y007859D01*
X015532Y007903D01*
X015553Y007946D01*
X015577Y007986D01*
X015604Y008025D01*
X015635Y008061D01*
X015668Y008094D01*
X015704Y008125D01*
X015743Y008152D01*
X015783Y008176D01*
X015826Y008197D01*
X015870Y008214D01*
X015915Y008228D01*
X015961Y008237D01*
X016008Y008243D01*
X016055Y008245D01*
X016102Y008243D01*
X016149Y008237D01*
X016195Y008228D01*
X016240Y008214D01*
X016284Y008197D01*
X016327Y008176D01*
X016367Y008152D01*
X016406Y008125D01*
X016442Y008094D01*
X016475Y008061D01*
X016506Y008025D01*
X016533Y007986D01*
X016557Y007946D01*
X016578Y007903D01*
X016595Y007859D01*
X016609Y007814D01*
X016618Y007768D01*
X016624Y007721D01*
X016626Y007674D01*
X016624Y007627D01*
X016618Y007580D01*
X016609Y007534D01*
X016595Y007489D01*
X016578Y007445D01*
X016557Y007402D01*
X016533Y007362D01*
X016506Y007323D01*
X016475Y007287D01*
X016442Y007254D01*
X016406Y007223D01*
X016367Y007196D01*
X016327Y007172D01*
X016284Y007151D01*
X016240Y007134D01*
X016195Y007120D01*
X016149Y007111D01*
X016102Y007105D01*
X016055Y007103D01*
X016008Y007105D01*
X015961Y007111D01*
X015915Y007120D01*
X015870Y007134D01*
X015826Y007151D01*
X015783Y007172D01*
X015743Y007196D01*
X015704Y007223D01*
X015668Y007254D01*
X015635Y007287D01*
X015604Y007323D01*
X015577Y007362D01*
X015553Y007402D01*
X015532Y007445D01*
X015515Y007489D01*
X015501Y007534D01*
X015492Y007580D01*
X015486Y007627D01*
X015484Y007674D01*
M02*
