G75*
%MOIN*%
%OFA0B0*%
%FSLAX24Y24*%
%IPPOS*%
%LPD*%
%AMOC8*
5,1,8,0,0,1.08239X$1,22.5*
%
%ADD10C,0.0000*%
%ADD11C,0.0030*%
%ADD12R,0.0591X0.0591*%
%ADD13C,0.0660*%
%ADD14C,0.0591*%
%ADD15R,0.0600X0.0600*%
%ADD16C,0.0240*%
%ADD17C,0.0160*%
%ADD18C,0.0080*%
D10*
X005744Y004971D02*
X023460Y004971D01*
X023460Y017570D01*
X021492Y017570D01*
X021492Y022688D01*
X005744Y022688D01*
X005744Y004971D01*
X015484Y007674D02*
X015486Y007721D01*
X015492Y007768D01*
X015501Y007814D01*
X015515Y007859D01*
X015532Y007903D01*
X015553Y007946D01*
X015577Y007986D01*
X015604Y008025D01*
X015635Y008061D01*
X015668Y008094D01*
X015704Y008125D01*
X015743Y008152D01*
X015783Y008176D01*
X015826Y008197D01*
X015870Y008214D01*
X015915Y008228D01*
X015961Y008237D01*
X016008Y008243D01*
X016055Y008245D01*
X016102Y008243D01*
X016149Y008237D01*
X016195Y008228D01*
X016240Y008214D01*
X016284Y008197D01*
X016327Y008176D01*
X016367Y008152D01*
X016406Y008125D01*
X016442Y008094D01*
X016475Y008061D01*
X016506Y008025D01*
X016533Y007986D01*
X016557Y007946D01*
X016578Y007903D01*
X016595Y007859D01*
X016609Y007814D01*
X016618Y007768D01*
X016624Y007721D01*
X016626Y007674D01*
X016624Y007627D01*
X016618Y007580D01*
X016609Y007534D01*
X016595Y007489D01*
X016578Y007445D01*
X016557Y007402D01*
X016533Y007362D01*
X016506Y007323D01*
X016475Y007287D01*
X016442Y007254D01*
X016406Y007223D01*
X016367Y007196D01*
X016327Y007172D01*
X016284Y007151D01*
X016240Y007134D01*
X016195Y007120D01*
X016149Y007111D01*
X016102Y007105D01*
X016055Y007103D01*
X016008Y007105D01*
X015961Y007111D01*
X015915Y007120D01*
X015870Y007134D01*
X015826Y007151D01*
X015783Y007172D01*
X015743Y007196D01*
X015704Y007223D01*
X015668Y007254D01*
X015635Y007287D01*
X015604Y007323D01*
X015577Y007362D01*
X015553Y007402D01*
X015532Y007445D01*
X015515Y007489D01*
X015501Y007534D01*
X015492Y007580D01*
X015486Y007627D01*
X015484Y007674D01*
D11*
X021471Y005412D02*
X021471Y005226D01*
X021595Y005226D02*
X021595Y005412D01*
X021533Y005473D01*
X021471Y005412D01*
X021595Y005412D02*
X021656Y005473D01*
X021718Y005473D01*
X021718Y005226D01*
X021840Y005226D02*
X021964Y005226D01*
X021902Y005226D02*
X021902Y005473D01*
X021964Y005473D01*
X022085Y005412D02*
X022147Y005473D01*
X022332Y005473D01*
X022332Y005226D01*
X022454Y005226D02*
X022454Y005412D01*
X022515Y005473D01*
X022700Y005473D01*
X022700Y005226D01*
X022822Y005226D02*
X022822Y005473D01*
X022945Y005597D01*
X023069Y005473D01*
X023069Y005226D01*
X023069Y005412D02*
X022822Y005412D01*
X022085Y005412D02*
X022085Y005226D01*
X021902Y005597D02*
X021902Y005658D01*
D12*
X008960Y019558D03*
X006960Y020558D03*
D13*
X006960Y021558D03*
X008960Y021558D03*
D14*
X009960Y021558D03*
X010960Y021558D03*
X011960Y021558D03*
X012960Y021558D03*
X013960Y021558D03*
X014960Y021558D03*
X015960Y021558D03*
X016960Y021558D03*
X017960Y021558D03*
X018960Y021558D03*
X018960Y020558D03*
X017960Y020558D03*
X016960Y020558D03*
X015960Y020558D03*
X014960Y020558D03*
X013960Y020558D03*
X012960Y020558D03*
X011960Y020558D03*
X010960Y020558D03*
X009960Y020558D03*
X008960Y020558D03*
X007960Y020558D03*
X007960Y021558D03*
X009960Y019558D03*
X010960Y019558D03*
X011960Y019558D03*
X011960Y018558D03*
X010960Y018558D03*
X009960Y018558D03*
X008960Y018558D03*
D15*
X007097Y014707D03*
X007097Y013707D03*
X007097Y011951D03*
X007097Y010951D03*
X007097Y009195D03*
X007097Y008195D03*
X007120Y006676D03*
X007120Y005676D03*
D16*
X008024Y005571D03*
X008684Y006051D03*
X010724Y005871D03*
X010724Y005271D03*
X012224Y005751D03*
X013124Y006951D03*
X014024Y008691D03*
X016124Y008631D03*
X015764Y010431D03*
X016004Y010731D03*
X016304Y010971D03*
X016664Y011151D03*
X016604Y010551D03*
X019904Y009291D03*
X021464Y010311D03*
X020624Y010671D03*
X021044Y011271D03*
X022544Y012291D03*
X022904Y012771D03*
X022424Y013911D03*
X022004Y014271D03*
X021044Y014211D03*
X019784Y013851D03*
X018884Y014391D03*
X018344Y013731D03*
X018644Y015531D03*
X019064Y015951D03*
X017624Y016851D03*
X017864Y017091D03*
X017444Y017331D03*
X017864Y018411D03*
X019244Y018471D03*
X019244Y019431D03*
X015464Y017931D03*
X015464Y015951D03*
X011984Y014931D03*
X010724Y013191D03*
X010604Y011991D03*
X011624Y011391D03*
X011924Y011211D03*
X012224Y011751D03*
X011984Y011991D03*
X013904Y012711D03*
X009344Y009591D03*
X009404Y008451D03*
X008084Y008151D03*
X008084Y010911D03*
X007784Y013731D03*
X011204Y017391D03*
X007844Y019851D03*
X021344Y016191D03*
X022964Y016971D03*
X022544Y010071D03*
X022604Y009651D03*
X022424Y008991D03*
X022844Y007731D03*
X020984Y006951D03*
X020144Y006171D03*
X020144Y005631D03*
X019784Y005391D03*
X020984Y005871D03*
X018704Y006711D03*
X019364Y007671D03*
X017084Y005451D03*
X015884Y005271D03*
X015944Y006411D03*
D17*
X015886Y006931D02*
X013455Y006931D01*
X013424Y006963D01*
X013424Y007011D01*
X013378Y007121D01*
X013294Y007206D01*
X013183Y007251D01*
X013064Y007251D01*
X012954Y007206D01*
X012869Y007121D01*
X012824Y007011D01*
X012824Y006892D01*
X012869Y006782D01*
X012954Y006697D01*
X013064Y006651D01*
X013113Y006651D01*
X013273Y006491D01*
X018499Y006491D01*
X018534Y006457D01*
X018644Y006411D01*
X018763Y006411D01*
X018874Y006457D01*
X018958Y006542D01*
X019004Y006652D01*
X019004Y006771D01*
X018995Y006791D01*
X019564Y006791D01*
X019564Y006623D01*
X019504Y006563D01*
X019504Y005900D01*
X019633Y005771D01*
X019684Y005720D01*
X019684Y005675D01*
X019614Y005646D01*
X019529Y005561D01*
X019505Y005502D01*
X019455Y005551D01*
X017367Y005551D01*
X017338Y005621D01*
X017254Y005706D01*
X017143Y005751D01*
X017024Y005751D01*
X016914Y005706D01*
X016829Y005621D01*
X016784Y005511D01*
X016784Y005392D01*
X016829Y005282D01*
X016914Y005197D01*
X017024Y005151D01*
X017073Y005151D01*
X005924Y005151D01*
X005924Y022508D01*
X021312Y022508D01*
X021312Y017495D01*
X021417Y017390D01*
X023280Y017390D01*
X023280Y005151D01*
X023264Y005151D01*
X023264Y005554D01*
X023140Y005678D01*
X023026Y005792D01*
X022864Y005792D01*
X022741Y005668D01*
X022434Y005668D01*
X022424Y005658D01*
X022413Y005668D01*
X022097Y005668D01*
X022097Y005739D01*
X021983Y005853D01*
X021821Y005853D01*
X021707Y005739D01*
X021707Y005668D01*
X021532Y005668D01*
X021452Y005668D01*
X021391Y005607D01*
X021276Y005492D01*
X021276Y005151D01*
X021144Y005151D01*
X021144Y005613D01*
X021154Y005617D01*
X021238Y005702D01*
X021284Y005812D01*
X021284Y005931D01*
X021244Y006028D01*
X021244Y006795D01*
X021284Y006892D01*
X021284Y007011D01*
X021250Y007091D01*
X022815Y007091D01*
X022935Y007211D01*
X023064Y007340D01*
X023064Y007527D01*
X023098Y007562D01*
X023144Y007672D01*
X023144Y007791D01*
X023098Y007901D01*
X023064Y007936D01*
X023064Y012513D01*
X023074Y012517D01*
X023158Y012602D01*
X023204Y012712D01*
X023204Y012831D01*
X023158Y012941D01*
X023074Y013026D01*
X022963Y013071D01*
X022844Y013071D01*
X022804Y013055D01*
X022804Y013055D01*
X022804Y013843D01*
X022780Y013900D01*
X022931Y014051D01*
X023004Y014124D01*
X023044Y014220D01*
X023044Y014764D01*
X023111Y014831D01*
X023184Y014904D01*
X023224Y015000D01*
X023224Y016815D01*
X023264Y016912D01*
X023264Y017031D01*
X023218Y017141D01*
X023134Y017226D01*
X023023Y017271D01*
X022904Y017271D01*
X022794Y017226D01*
X022709Y017141D01*
X022664Y017031D01*
X022664Y016912D01*
X022704Y016815D01*
X022704Y015159D01*
X022563Y015019D01*
X022524Y014923D01*
X022524Y014379D01*
X022350Y014206D01*
X022254Y014166D01*
X022169Y014081D01*
X022124Y013971D01*
X022124Y013852D01*
X022169Y013742D01*
X022254Y013657D01*
X022284Y013645D01*
X022284Y012551D01*
X021472Y012551D01*
X021376Y012512D01*
X021316Y012452D01*
X021264Y012399D01*
X021264Y014007D01*
X021298Y014042D01*
X021344Y014152D01*
X021344Y014271D01*
X021298Y014381D01*
X021214Y014466D01*
X021144Y014495D01*
X021144Y021983D01*
X020964Y022163D01*
X020835Y022291D01*
X019395Y022291D01*
X019275Y022411D01*
X018673Y022411D01*
X018553Y022291D01*
X017893Y022291D01*
X017833Y022231D01*
X017704Y022103D01*
X017704Y021966D01*
X017691Y021961D01*
X017557Y021827D01*
X017493Y021673D01*
X017415Y021751D01*
X017395Y021751D01*
X017363Y021827D01*
X017229Y021961D01*
X017055Y022033D01*
X016866Y022033D01*
X016691Y021961D01*
X016557Y021827D01*
X016485Y021653D01*
X016485Y021464D01*
X016557Y021289D01*
X016691Y021155D01*
X016866Y021083D01*
X017055Y021083D01*
X017229Y021155D01*
X017279Y021205D01*
X017353Y021131D01*
X017593Y020891D01*
X017621Y020891D01*
X017557Y020827D01*
X017485Y020653D01*
X017485Y020464D01*
X017557Y020289D01*
X017691Y020155D01*
X017764Y020125D01*
X017764Y019403D01*
X017244Y018883D01*
X017244Y020169D01*
X017363Y020289D01*
X017436Y020464D01*
X017436Y020653D01*
X017363Y020827D01*
X017229Y020961D01*
X017055Y021033D01*
X016866Y021033D01*
X016691Y020961D01*
X016557Y020827D01*
X016485Y020653D01*
X016485Y020464D01*
X016557Y020289D01*
X016691Y020155D01*
X016804Y020108D01*
X016804Y018683D01*
X016644Y018523D01*
X016644Y019043D01*
X016224Y019463D01*
X016224Y020153D01*
X016229Y020155D01*
X016363Y020289D01*
X016436Y020464D01*
X016436Y020653D01*
X016363Y020827D01*
X016229Y020961D01*
X016055Y021033D01*
X015866Y021033D01*
X015691Y020961D01*
X015557Y020827D01*
X015485Y020653D01*
X015485Y020464D01*
X015557Y020289D01*
X015691Y020155D01*
X015784Y020117D01*
X015784Y019531D01*
X014475Y019531D01*
X014184Y019823D01*
X014184Y020136D01*
X014229Y020155D01*
X014363Y020289D01*
X014436Y020464D01*
X014436Y020653D01*
X014363Y020827D01*
X014229Y020961D01*
X014055Y021033D01*
X013866Y021033D01*
X013691Y020961D01*
X013557Y020827D01*
X013485Y020653D01*
X013485Y020464D01*
X013557Y020289D01*
X013691Y020155D01*
X013744Y020133D01*
X013744Y019640D01*
X013873Y019511D01*
X014293Y019091D01*
X015733Y019091D01*
X016024Y018800D01*
X016024Y018383D01*
X015904Y018263D01*
X015904Y011663D01*
X015724Y011483D01*
X015724Y011303D01*
X015604Y011183D01*
X015604Y011003D01*
X015544Y010943D01*
X015544Y010636D01*
X015509Y010601D01*
X015464Y010491D01*
X015464Y010372D01*
X015509Y010262D01*
X015594Y010177D01*
X015704Y010131D01*
X015823Y010131D01*
X015934Y010177D01*
X016018Y010262D01*
X016064Y010372D01*
X016064Y010432D01*
X016174Y010477D01*
X016258Y010562D01*
X016304Y010671D01*
X016363Y010671D01*
X016474Y010717D01*
X016558Y010802D01*
X016582Y010860D01*
X016604Y010851D01*
X016723Y010851D01*
X016834Y010897D01*
X016918Y010982D01*
X016964Y011092D01*
X016964Y011211D01*
X016918Y011321D01*
X016884Y011356D01*
X016884Y017900D01*
X018075Y019091D01*
X018204Y019220D01*
X018204Y020144D01*
X018229Y020155D01*
X018363Y020289D01*
X018436Y020464D01*
X018436Y020653D01*
X018363Y020827D01*
X018277Y020914D01*
X018384Y021020D01*
X018464Y021100D01*
X018647Y020917D01*
X018598Y020868D01*
X018554Y020807D01*
X018520Y020741D01*
X018497Y020669D01*
X018485Y020595D01*
X018485Y020576D01*
X018942Y020576D01*
X018942Y020540D01*
X018485Y020540D01*
X018485Y020521D01*
X018497Y020447D01*
X018520Y020376D01*
X018554Y020309D01*
X018598Y020248D01*
X018651Y020196D01*
X018711Y020152D01*
X018778Y020118D01*
X018849Y020094D01*
X018923Y020083D01*
X018942Y020083D01*
X018942Y020540D01*
X018979Y020540D01*
X018979Y020576D01*
X019436Y020576D01*
X019436Y020595D01*
X019424Y020669D01*
X019401Y020741D01*
X019367Y020807D01*
X019323Y020868D01*
X019270Y020921D01*
X019255Y020931D01*
X019344Y021020D01*
X019455Y021131D01*
X020524Y021131D01*
X020524Y014663D01*
X020404Y014543D01*
X020404Y013940D01*
X020464Y013880D01*
X020464Y012083D01*
X020224Y011843D01*
X020224Y011431D01*
X019093Y011431D01*
X018964Y011303D01*
X018884Y011223D01*
X018384Y011723D01*
X018255Y011851D01*
X018135Y011851D01*
X018084Y011903D01*
X018084Y013575D01*
X018089Y013562D01*
X018174Y013477D01*
X018284Y013431D01*
X018403Y013431D01*
X018514Y013477D01*
X018598Y013562D01*
X018610Y013591D01*
X019627Y013591D01*
X019724Y013551D01*
X019843Y013551D01*
X019954Y013597D01*
X020038Y013682D01*
X020084Y013792D01*
X020084Y013911D01*
X020038Y014021D01*
X019954Y014106D01*
X019843Y014151D01*
X019724Y014151D01*
X019627Y014111D01*
X018412Y014111D01*
X018316Y014072D01*
X018270Y014026D01*
X018174Y013986D01*
X018089Y013901D01*
X018084Y013888D01*
X018084Y016887D01*
X018118Y016922D01*
X018164Y017032D01*
X018164Y017151D01*
X018118Y017261D01*
X018034Y017346D01*
X017923Y017391D01*
X017804Y017391D01*
X017744Y017366D01*
X017744Y017391D01*
X017698Y017501D01*
X017614Y017586D01*
X017503Y017631D01*
X017384Y017631D01*
X017274Y017586D01*
X017189Y017501D01*
X017144Y017391D01*
X017144Y017272D01*
X017164Y017223D01*
X017164Y016640D01*
X017224Y016580D01*
X017224Y016460D01*
X017284Y016400D01*
X017284Y011600D01*
X017413Y011471D01*
X017833Y011051D01*
X017953Y011051D01*
X018124Y010880D01*
X018124Y007460D01*
X018253Y007331D01*
X018594Y006991D01*
X018534Y006966D01*
X018499Y006931D01*
X016224Y006931D01*
X016480Y007038D01*
X016691Y007249D01*
X016806Y007525D01*
X016806Y007824D01*
X016691Y008100D01*
X016480Y008311D01*
X016204Y008425D01*
X015905Y008425D01*
X015629Y008311D01*
X015418Y008100D01*
X015304Y007824D01*
X015304Y007525D01*
X015418Y007249D01*
X015629Y007038D01*
X015886Y006931D01*
X015643Y007032D02*
X013415Y007032D01*
X013309Y007190D02*
X015477Y007190D01*
X015377Y007349D02*
X011372Y007349D01*
X011364Y007340D02*
X011595Y007571D01*
X011955Y007571D01*
X012075Y007691D01*
X012204Y007820D01*
X012204Y011103D01*
X012224Y011152D01*
X012224Y011271D01*
X012178Y011381D01*
X012094Y011466D01*
X011983Y011511D01*
X011899Y011511D01*
X011890Y011531D01*
X012019Y011531D01*
X012054Y011497D01*
X012164Y011451D01*
X012283Y011451D01*
X012394Y011497D01*
X012478Y011582D01*
X012524Y011692D01*
X012524Y011811D01*
X012478Y011921D01*
X012394Y012006D01*
X012284Y012051D01*
X012238Y012161D01*
X012154Y012246D01*
X012144Y012250D01*
X012144Y013703D01*
X012015Y013831D01*
X011895Y013951D01*
X007988Y013951D01*
X007954Y013986D01*
X007843Y014031D01*
X007724Y014031D01*
X007614Y013986D01*
X007577Y013949D01*
X007577Y014081D01*
X007472Y014187D01*
X006723Y014187D01*
X006617Y014081D01*
X006617Y013332D01*
X006723Y013227D01*
X007472Y013227D01*
X007577Y013332D01*
X007577Y013513D01*
X007614Y013477D01*
X007724Y013431D01*
X007843Y013431D01*
X007954Y013477D01*
X007988Y013511D01*
X011704Y013511D01*
X011704Y012099D01*
X011684Y012051D01*
X011684Y011971D01*
X011173Y011971D01*
X011044Y011843D01*
X011044Y011843D01*
X010993Y011791D01*
X010993Y011791D01*
X010864Y011663D01*
X010864Y011363D01*
X010633Y011131D01*
X008288Y011131D01*
X008254Y011166D01*
X008143Y011211D01*
X008024Y011211D01*
X007914Y011166D01*
X007829Y011081D01*
X007784Y010971D01*
X007784Y010852D01*
X007829Y010742D01*
X007914Y010657D01*
X008024Y010611D01*
X008143Y010611D01*
X008254Y010657D01*
X008288Y010691D01*
X010815Y010691D01*
X011175Y011051D01*
X011304Y011180D01*
X011304Y011480D01*
X011355Y011531D01*
X011357Y011531D01*
X011324Y011451D01*
X011324Y011332D01*
X011369Y011222D01*
X011454Y011137D01*
X011464Y011133D01*
X011464Y011000D01*
X011584Y010880D01*
X011584Y008371D01*
X008288Y008371D01*
X008254Y008406D01*
X008143Y008451D01*
X008024Y008451D01*
X007914Y008406D01*
X007829Y008321D01*
X007784Y008211D01*
X007784Y008092D01*
X007829Y007982D01*
X007914Y007897D01*
X008024Y007851D01*
X008143Y007851D01*
X008254Y007897D01*
X008288Y007931D01*
X011333Y007931D01*
X011284Y007883D01*
X010924Y007523D01*
X010924Y005843D01*
X010873Y005791D01*
X008228Y005791D01*
X008194Y005826D01*
X008083Y005871D01*
X007964Y005871D01*
X007854Y005826D01*
X007769Y005741D01*
X007724Y005631D01*
X007724Y005512D01*
X007769Y005402D01*
X007854Y005317D01*
X007964Y005271D01*
X008083Y005271D01*
X008194Y005317D01*
X008228Y005351D01*
X011055Y005351D01*
X011235Y005531D01*
X011364Y005660D01*
X011364Y007340D01*
X011364Y007190D02*
X012938Y007190D01*
X012832Y007032D02*
X011364Y007032D01*
X011364Y006873D02*
X012831Y006873D01*
X012936Y006715D02*
X011364Y006715D01*
X011364Y006556D02*
X013208Y006556D01*
X012224Y005751D02*
X011744Y005751D01*
X011264Y005271D01*
X010724Y005271D01*
X011150Y005447D02*
X016784Y005447D01*
X016823Y005605D02*
X011309Y005605D01*
X011364Y005764D02*
X019640Y005764D01*
X019573Y005605D02*
X017345Y005605D01*
X016826Y005288D02*
X008124Y005288D01*
X007923Y005288D02*
X007588Y005288D01*
X007600Y005301D02*
X007600Y006050D01*
X007495Y006156D01*
X006746Y006156D01*
X006640Y006050D01*
X006640Y005301D01*
X006746Y005196D01*
X007495Y005196D01*
X007600Y005301D01*
X007600Y005447D02*
X007751Y005447D01*
X007724Y005605D02*
X007600Y005605D01*
X007600Y005764D02*
X007792Y005764D01*
X007600Y005922D02*
X010924Y005922D01*
X010924Y006081D02*
X007570Y006081D01*
X007495Y006196D02*
X007600Y006301D01*
X007600Y007050D01*
X007495Y007156D01*
X006746Y007156D01*
X006640Y007050D01*
X006640Y006301D01*
X006746Y006196D01*
X007495Y006196D01*
X007539Y006239D02*
X010924Y006239D01*
X010924Y006398D02*
X007600Y006398D01*
X007600Y006556D02*
X010924Y006556D01*
X010924Y006715D02*
X007600Y006715D01*
X007600Y006873D02*
X010924Y006873D01*
X010924Y007032D02*
X007600Y007032D01*
X007472Y007715D02*
X006723Y007715D01*
X006617Y007820D01*
X006617Y008569D01*
X006723Y008675D01*
X007472Y008675D01*
X007577Y008569D01*
X007577Y007820D01*
X007472Y007715D01*
X007577Y007824D02*
X011226Y007824D01*
X011067Y007666D02*
X005924Y007666D01*
X005924Y007824D02*
X006617Y007824D01*
X006617Y007983D02*
X005924Y007983D01*
X005924Y008141D02*
X006617Y008141D01*
X006617Y008300D02*
X005924Y008300D01*
X005924Y008458D02*
X006617Y008458D01*
X006665Y008617D02*
X005924Y008617D01*
X005924Y008775D02*
X006662Y008775D01*
X006617Y008820D02*
X006723Y008715D01*
X007472Y008715D01*
X007577Y008820D01*
X007577Y009569D01*
X007472Y009675D01*
X006723Y009675D01*
X006617Y009569D01*
X006617Y008820D01*
X006617Y008934D02*
X005924Y008934D01*
X005924Y009092D02*
X006617Y009092D01*
X006617Y009251D02*
X005924Y009251D01*
X005924Y009409D02*
X006617Y009409D01*
X006617Y009568D02*
X005924Y009568D01*
X005924Y009726D02*
X011584Y009726D01*
X011584Y009568D02*
X007577Y009568D01*
X007577Y009409D02*
X011584Y009409D01*
X011584Y009251D02*
X007577Y009251D01*
X007577Y009092D02*
X011584Y009092D01*
X011584Y008934D02*
X007577Y008934D01*
X007533Y008775D02*
X011584Y008775D01*
X011584Y008617D02*
X007530Y008617D01*
X007577Y008458D02*
X011584Y008458D01*
X012204Y008458D02*
X018124Y008458D01*
X018124Y008300D02*
X016491Y008300D01*
X016649Y008141D02*
X018124Y008141D01*
X018124Y007983D02*
X016740Y007983D01*
X016805Y007824D02*
X018124Y007824D01*
X018124Y007666D02*
X016806Y007666D01*
X016798Y007507D02*
X018124Y007507D01*
X018235Y007349D02*
X016733Y007349D01*
X016633Y007190D02*
X018394Y007190D01*
X018253Y007331D02*
X018253Y007331D01*
X018552Y007032D02*
X016466Y007032D01*
X015311Y007507D02*
X011531Y007507D01*
X012049Y007666D02*
X015304Y007666D01*
X015304Y007824D02*
X012204Y007824D01*
X012204Y007983D02*
X015370Y007983D01*
X015460Y008141D02*
X012204Y008141D01*
X012204Y008300D02*
X015619Y008300D01*
X016064Y008691D02*
X016124Y008631D01*
X016184Y008691D01*
X016184Y010311D01*
X016424Y010551D01*
X016604Y010551D01*
X016378Y010677D02*
X018124Y010677D01*
X018124Y010519D02*
X016215Y010519D01*
X016059Y010360D02*
X018124Y010360D01*
X018124Y010202D02*
X015958Y010202D01*
X015569Y010202D02*
X012204Y010202D01*
X012204Y010360D02*
X015468Y010360D01*
X015475Y010519D02*
X012204Y010519D01*
X012204Y010677D02*
X015544Y010677D01*
X015544Y010836D02*
X012204Y010836D01*
X012204Y010994D02*
X015596Y010994D01*
X015604Y011153D02*
X012224Y011153D01*
X012207Y011311D02*
X015724Y011311D01*
X015724Y011470D02*
X012328Y011470D01*
X012119Y011470D02*
X012084Y011470D01*
X012497Y011628D02*
X015870Y011628D01*
X015904Y011787D02*
X012524Y011787D01*
X012454Y011945D02*
X015904Y011945D01*
X015904Y012104D02*
X012262Y012104D01*
X012144Y012262D02*
X015904Y012262D01*
X015904Y012421D02*
X012144Y012421D01*
X012144Y012579D02*
X015904Y012579D01*
X015904Y012738D02*
X012144Y012738D01*
X012144Y012896D02*
X015904Y012896D01*
X015904Y013055D02*
X012144Y013055D01*
X012144Y013213D02*
X015904Y013213D01*
X015904Y013372D02*
X012144Y013372D01*
X012144Y013530D02*
X015904Y013530D01*
X015904Y013689D02*
X012144Y013689D01*
X011999Y013847D02*
X015904Y013847D01*
X015904Y014006D02*
X007905Y014006D01*
X007663Y014006D02*
X007577Y014006D01*
X007494Y014164D02*
X015904Y014164D01*
X015904Y014323D02*
X007568Y014323D01*
X007577Y014332D02*
X007577Y015081D01*
X007472Y015187D01*
X006723Y015187D01*
X006617Y015081D01*
X006617Y014332D01*
X006723Y014227D01*
X007472Y014227D01*
X007577Y014332D01*
X007577Y014481D02*
X015904Y014481D01*
X015904Y014640D02*
X007577Y014640D01*
X007577Y014798D02*
X015904Y014798D01*
X015904Y014957D02*
X007577Y014957D01*
X007543Y015115D02*
X015904Y015115D01*
X015904Y015274D02*
X005924Y015274D01*
X005924Y015432D02*
X015904Y015432D01*
X015904Y015591D02*
X005924Y015591D01*
X005924Y015749D02*
X015241Y015749D01*
X015209Y015782D02*
X015294Y015697D01*
X015404Y015651D01*
X015523Y015651D01*
X015634Y015697D01*
X015718Y015782D01*
X015764Y015892D01*
X015764Y016011D01*
X015718Y016121D01*
X015684Y016156D01*
X015684Y017727D01*
X015718Y017762D01*
X015764Y017872D01*
X015764Y017991D01*
X015718Y018101D01*
X015634Y018186D01*
X015523Y018231D01*
X015404Y018231D01*
X015294Y018186D01*
X015209Y018101D01*
X015180Y018031D01*
X011715Y018031D01*
X011664Y018083D01*
X011664Y018186D01*
X011711Y018152D01*
X011778Y018118D01*
X011849Y018094D01*
X011923Y018083D01*
X011942Y018083D01*
X011942Y018540D01*
X011979Y018540D01*
X011979Y018576D01*
X012436Y018576D01*
X012436Y018595D01*
X012424Y018669D01*
X012401Y018741D01*
X012367Y018807D01*
X012323Y018868D01*
X012270Y018921D01*
X012209Y018965D01*
X012143Y018999D01*
X012072Y019022D01*
X011998Y019033D01*
X011979Y019033D01*
X011979Y018577D01*
X011942Y018577D01*
X011942Y019033D01*
X011923Y019033D01*
X011849Y019022D01*
X011778Y018999D01*
X011711Y018965D01*
X011664Y018930D01*
X011664Y019186D01*
X011711Y019152D01*
X011778Y019118D01*
X011849Y019094D01*
X011923Y019083D01*
X011942Y019083D01*
X011942Y019540D01*
X011979Y019540D01*
X011979Y019576D01*
X012436Y019576D01*
X012436Y019595D01*
X012424Y019669D01*
X012401Y019741D01*
X012367Y019807D01*
X012323Y019868D01*
X012270Y019921D01*
X012209Y019965D01*
X012143Y019999D01*
X012072Y020022D01*
X011998Y020033D01*
X011979Y020033D01*
X011979Y019577D01*
X011942Y019577D01*
X011942Y020033D01*
X011923Y020033D01*
X011849Y020022D01*
X011778Y019999D01*
X011711Y019965D01*
X011664Y019930D01*
X011664Y019943D01*
X011535Y020071D01*
X011338Y020269D01*
X011367Y020309D01*
X011401Y020376D01*
X011424Y020447D01*
X011436Y020521D01*
X011436Y020540D01*
X010979Y020540D01*
X010979Y020576D01*
X011436Y020576D01*
X011436Y020595D01*
X011424Y020669D01*
X011401Y020741D01*
X011367Y020807D01*
X011323Y020868D01*
X011270Y020921D01*
X011209Y020965D01*
X011143Y020999D01*
X011072Y021022D01*
X010998Y021033D01*
X010979Y021033D01*
X010979Y020577D01*
X010942Y020577D01*
X010942Y021033D01*
X010923Y021033D01*
X010849Y021022D01*
X010778Y020999D01*
X010711Y020965D01*
X010651Y020921D01*
X010598Y020868D01*
X010554Y020807D01*
X010520Y020741D01*
X010497Y020669D01*
X010485Y020595D01*
X010485Y020576D01*
X010942Y020576D01*
X010942Y020540D01*
X010485Y020540D01*
X010485Y020521D01*
X010497Y020447D01*
X010520Y020376D01*
X010552Y020311D01*
X010373Y020311D01*
X010436Y020464D01*
X010436Y020653D01*
X010363Y020827D01*
X010229Y020961D01*
X010055Y021033D01*
X009866Y021033D01*
X009691Y020961D01*
X009557Y020827D01*
X009485Y020653D01*
X009485Y020464D01*
X009548Y020311D01*
X009373Y020311D01*
X009436Y020464D01*
X009436Y020653D01*
X009363Y020827D01*
X009229Y020961D01*
X009055Y021033D01*
X008866Y021033D01*
X008691Y020961D01*
X008557Y020827D01*
X008485Y020653D01*
X008485Y020464D01*
X008548Y020311D01*
X008373Y020311D01*
X008436Y020464D01*
X008436Y020653D01*
X008363Y020827D01*
X008229Y020961D01*
X008055Y021033D01*
X007866Y021033D01*
X007691Y020961D01*
X007557Y020827D01*
X007485Y020653D01*
X007485Y020464D01*
X007557Y020289D01*
X007691Y020155D01*
X007742Y020134D01*
X007674Y020106D01*
X007589Y020021D01*
X007544Y019911D01*
X007544Y019792D01*
X007589Y019682D01*
X007674Y019597D01*
X007784Y019551D01*
X007903Y019551D01*
X008014Y019597D01*
X008048Y019631D01*
X008055Y019631D01*
X008295Y019871D01*
X008485Y019871D01*
X008485Y019188D01*
X008590Y019083D01*
X009330Y019083D01*
X009436Y019188D01*
X009436Y019871D01*
X009601Y019871D01*
X009557Y019827D01*
X009485Y019653D01*
X009485Y019464D01*
X009557Y019289D01*
X009644Y019203D01*
X009544Y019103D01*
X009316Y018875D01*
X009229Y018961D01*
X009055Y019033D01*
X008866Y019033D01*
X008691Y018961D01*
X008557Y018827D01*
X008485Y018653D01*
X008485Y018464D01*
X008557Y018289D01*
X008691Y018155D01*
X008866Y018083D01*
X009055Y018083D01*
X009229Y018155D01*
X009319Y018245D01*
X009373Y018191D01*
X009724Y017840D01*
X009724Y017540D01*
X009853Y017411D01*
X010093Y017171D01*
X010999Y017171D01*
X011034Y017137D01*
X011144Y017091D01*
X011263Y017091D01*
X011374Y017137D01*
X011458Y017222D01*
X011504Y017332D01*
X011504Y017451D01*
X011458Y017561D01*
X011374Y017646D01*
X011263Y017691D01*
X011144Y017691D01*
X011034Y017646D01*
X010999Y017611D01*
X010275Y017611D01*
X010164Y017723D01*
X010164Y018023D01*
X010089Y018097D01*
X010229Y018155D01*
X010363Y018289D01*
X010436Y018464D01*
X010436Y018653D01*
X010378Y018791D01*
X010542Y018791D01*
X010485Y018653D01*
X010485Y018464D01*
X010557Y018289D01*
X010691Y018155D01*
X010866Y018083D01*
X011055Y018083D01*
X011224Y018153D01*
X011224Y017900D01*
X011404Y017720D01*
X011533Y017591D01*
X015244Y017591D01*
X015244Y016156D01*
X015209Y016121D01*
X015164Y016011D01*
X015164Y015892D01*
X015209Y015782D01*
X015164Y015908D02*
X005924Y015908D01*
X005924Y016066D02*
X015187Y016066D01*
X015244Y016225D02*
X005924Y016225D01*
X005924Y016383D02*
X015244Y016383D01*
X015244Y016542D02*
X005924Y016542D01*
X005924Y016700D02*
X015244Y016700D01*
X015244Y016859D02*
X005924Y016859D01*
X005924Y017017D02*
X015244Y017017D01*
X015244Y017176D02*
X011412Y017176D01*
X011504Y017334D02*
X015244Y017334D01*
X015244Y017493D02*
X011486Y017493D01*
X011473Y017651D02*
X011360Y017651D01*
X011314Y017810D02*
X010164Y017810D01*
X010164Y017968D02*
X011224Y017968D01*
X011224Y018127D02*
X011161Y018127D01*
X010759Y018127D02*
X010161Y018127D01*
X010360Y018285D02*
X010561Y018285D01*
X010493Y018444D02*
X010427Y018444D01*
X010436Y018602D02*
X010485Y018602D01*
X010530Y018761D02*
X010391Y018761D01*
X009610Y019236D02*
X009436Y019236D01*
X009436Y019395D02*
X009513Y019395D01*
X009485Y019553D02*
X009436Y019553D01*
X009436Y019712D02*
X009510Y019712D01*
X009436Y019870D02*
X009601Y019870D01*
X009534Y020346D02*
X009387Y020346D01*
X009436Y020504D02*
X009485Y020504D01*
X009489Y020663D02*
X009431Y020663D01*
X009366Y020821D02*
X009555Y020821D01*
X009737Y020980D02*
X009184Y020980D01*
X009156Y021085D02*
X009228Y021122D01*
X009292Y021169D01*
X009349Y021226D01*
X009396Y021291D01*
X009433Y021362D01*
X009458Y021439D01*
X009470Y021518D01*
X009470Y021540D01*
X008979Y021540D01*
X008979Y021576D01*
X009470Y021576D01*
X009470Y021598D01*
X009458Y021677D01*
X009433Y021754D01*
X009396Y021825D01*
X009349Y021890D01*
X009292Y021947D01*
X009228Y021994D01*
X009156Y022031D01*
X009080Y022056D01*
X009000Y022068D01*
X008979Y022068D01*
X008979Y021577D01*
X008942Y021577D01*
X008942Y022068D01*
X008920Y022068D01*
X008841Y022056D01*
X008764Y022031D01*
X008693Y021994D01*
X008628Y021947D01*
X008571Y021890D01*
X008524Y021825D01*
X008488Y021754D01*
X008463Y021677D01*
X008450Y021598D01*
X008450Y021576D01*
X008942Y021576D01*
X008942Y021540D01*
X008450Y021540D01*
X008450Y021518D01*
X008463Y021439D01*
X008488Y021362D01*
X008524Y021291D01*
X008571Y021226D01*
X008628Y021169D01*
X008693Y021122D01*
X008764Y021085D01*
X008841Y021061D01*
X008920Y021048D01*
X008942Y021048D01*
X008942Y021540D01*
X008979Y021540D01*
X008979Y021048D01*
X009000Y021048D01*
X009080Y021061D01*
X009156Y021085D01*
X009250Y021138D02*
X009731Y021138D01*
X009691Y021155D02*
X009866Y021083D01*
X010055Y021083D01*
X010229Y021155D01*
X010363Y021289D01*
X010436Y021464D01*
X010436Y021653D01*
X010363Y021827D01*
X010229Y021961D01*
X010055Y022033D01*
X009866Y022033D01*
X009691Y021961D01*
X009557Y021827D01*
X009485Y021653D01*
X009485Y021464D01*
X009557Y021289D01*
X009691Y021155D01*
X009554Y021297D02*
X009400Y021297D01*
X009460Y021455D02*
X009488Y021455D01*
X009485Y021614D02*
X009468Y021614D01*
X009423Y021772D02*
X009535Y021772D01*
X009661Y021931D02*
X009309Y021931D01*
X008979Y021931D02*
X008942Y021931D01*
X008924Y022011D02*
X008924Y021595D01*
X008960Y021558D01*
X008942Y021614D02*
X008979Y021614D01*
X008979Y021772D02*
X008942Y021772D01*
X008924Y022011D02*
X008624Y022311D01*
X006464Y022311D01*
X006044Y021891D01*
X006044Y019251D01*
X007844Y017451D01*
X007844Y016011D01*
X008924Y014931D01*
X011984Y014931D01*
X011704Y013372D02*
X007577Y013372D01*
X006617Y013372D02*
X005924Y013372D01*
X005924Y013530D02*
X006617Y013530D01*
X006617Y013689D02*
X005924Y013689D01*
X005924Y013847D02*
X006617Y013847D01*
X006617Y014006D02*
X005924Y014006D01*
X005924Y014164D02*
X006701Y014164D01*
X006627Y014323D02*
X005924Y014323D01*
X005924Y014481D02*
X006617Y014481D01*
X006617Y014640D02*
X005924Y014640D01*
X005924Y014798D02*
X006617Y014798D01*
X006617Y014957D02*
X005924Y014957D01*
X005924Y015115D02*
X006652Y015115D01*
X005924Y013213D02*
X011704Y013213D01*
X011704Y013055D02*
X005924Y013055D01*
X005924Y012896D02*
X011704Y012896D01*
X011704Y012738D02*
X005924Y012738D01*
X005924Y012579D02*
X011704Y012579D01*
X011704Y012421D02*
X007482Y012421D01*
X007472Y012431D02*
X007577Y012325D01*
X007577Y011576D01*
X007472Y011471D01*
X006723Y011471D01*
X006617Y011576D01*
X006617Y012325D01*
X006723Y012431D01*
X007472Y012431D01*
X007577Y012262D02*
X011704Y012262D01*
X011704Y012104D02*
X007577Y012104D01*
X007577Y011945D02*
X011147Y011945D01*
X010988Y011787D02*
X007577Y011787D01*
X007577Y011628D02*
X010864Y011628D01*
X010864Y011470D02*
X005924Y011470D01*
X005924Y011628D02*
X006617Y011628D01*
X006617Y011787D02*
X005924Y011787D01*
X005924Y011945D02*
X006617Y011945D01*
X006617Y012104D02*
X005924Y012104D01*
X005924Y012262D02*
X006617Y012262D01*
X006713Y012421D02*
X005924Y012421D01*
X006723Y011431D02*
X006617Y011325D01*
X006617Y010576D01*
X006723Y010471D01*
X007472Y010471D01*
X007577Y010576D01*
X007577Y011325D01*
X007472Y011431D01*
X006723Y011431D01*
X006617Y011311D02*
X005924Y011311D01*
X005924Y011153D02*
X006617Y011153D01*
X006617Y010994D02*
X005924Y010994D01*
X005924Y010836D02*
X006617Y010836D01*
X006617Y010677D02*
X005924Y010677D01*
X005924Y010519D02*
X006675Y010519D01*
X005924Y010360D02*
X011584Y010360D01*
X011584Y010202D02*
X005924Y010202D01*
X005924Y010043D02*
X011584Y010043D01*
X011584Y009885D02*
X005924Y009885D01*
X007520Y010519D02*
X011584Y010519D01*
X011584Y010677D02*
X008274Y010677D01*
X007893Y010677D02*
X007577Y010677D01*
X007577Y010836D02*
X007790Y010836D01*
X007793Y010994D02*
X007577Y010994D01*
X007577Y011153D02*
X007901Y011153D01*
X007577Y011311D02*
X010813Y011311D01*
X010654Y011153D02*
X008266Y011153D01*
X010604Y011991D02*
X010604Y013071D01*
X010724Y013191D01*
X011304Y011470D02*
X011332Y011470D01*
X011332Y011311D02*
X011304Y011311D01*
X011276Y011153D02*
X011438Y011153D01*
X011470Y010994D02*
X011118Y010994D01*
X010959Y010836D02*
X011584Y010836D01*
X012204Y010043D02*
X018124Y010043D01*
X018124Y009885D02*
X012204Y009885D01*
X012204Y009726D02*
X018124Y009726D01*
X018124Y009568D02*
X012204Y009568D01*
X012204Y009409D02*
X018124Y009409D01*
X018124Y009251D02*
X012204Y009251D01*
X012204Y009092D02*
X018124Y009092D01*
X018124Y008934D02*
X012204Y008934D01*
X012204Y008775D02*
X018124Y008775D01*
X018124Y008617D02*
X012204Y008617D01*
X010924Y007507D02*
X005924Y007507D01*
X005924Y007349D02*
X010924Y007349D01*
X010924Y007190D02*
X005924Y007190D01*
X005924Y007032D02*
X006640Y007032D01*
X006640Y006873D02*
X005924Y006873D01*
X005924Y006715D02*
X006640Y006715D01*
X006640Y006556D02*
X005924Y006556D01*
X005924Y006398D02*
X006640Y006398D01*
X006702Y006239D02*
X005924Y006239D01*
X005924Y006081D02*
X006671Y006081D01*
X006640Y005922D02*
X005924Y005922D01*
X005924Y005764D02*
X006640Y005764D01*
X006640Y005605D02*
X005924Y005605D01*
X005924Y005447D02*
X006640Y005447D01*
X006653Y005288D02*
X005924Y005288D01*
X008684Y006051D02*
X010544Y006051D01*
X010724Y005871D01*
X011364Y005922D02*
X019504Y005922D01*
X019504Y006081D02*
X011364Y006081D01*
X011364Y006239D02*
X019504Y006239D01*
X019504Y006398D02*
X011364Y006398D01*
X009404Y008451D02*
X009344Y008511D01*
X009344Y009591D01*
X007820Y008300D02*
X007577Y008300D01*
X007577Y008141D02*
X007784Y008141D01*
X007829Y007983D02*
X007577Y007983D01*
X014024Y008691D02*
X016064Y008691D01*
X016572Y010836D02*
X018124Y010836D01*
X018010Y010994D02*
X016923Y010994D01*
X016964Y011153D02*
X017731Y011153D01*
X017573Y011311D02*
X016922Y011311D01*
X016884Y011470D02*
X017414Y011470D01*
X017284Y011628D02*
X016884Y011628D01*
X016884Y011787D02*
X017284Y011787D01*
X017284Y011945D02*
X016884Y011945D01*
X016884Y012104D02*
X017284Y012104D01*
X017284Y012262D02*
X016884Y012262D01*
X016884Y012421D02*
X017284Y012421D01*
X017284Y012579D02*
X016884Y012579D01*
X016884Y012738D02*
X017284Y012738D01*
X017284Y012896D02*
X016884Y012896D01*
X016884Y013055D02*
X017284Y013055D01*
X017284Y013213D02*
X016884Y013213D01*
X016884Y013372D02*
X017284Y013372D01*
X017284Y013530D02*
X016884Y013530D01*
X016884Y013689D02*
X017284Y013689D01*
X017284Y013847D02*
X016884Y013847D01*
X016884Y014006D02*
X017284Y014006D01*
X017284Y014164D02*
X016884Y014164D01*
X016884Y014323D02*
X017284Y014323D01*
X017284Y014481D02*
X016884Y014481D01*
X016884Y014640D02*
X017284Y014640D01*
X017284Y014798D02*
X016884Y014798D01*
X016884Y014957D02*
X017284Y014957D01*
X017284Y015115D02*
X016884Y015115D01*
X016884Y015274D02*
X017284Y015274D01*
X017284Y015432D02*
X016884Y015432D01*
X016884Y015591D02*
X017284Y015591D01*
X017284Y015749D02*
X016884Y015749D01*
X016884Y015908D02*
X017284Y015908D01*
X017284Y016066D02*
X016884Y016066D01*
X016884Y016225D02*
X017284Y016225D01*
X017284Y016383D02*
X016884Y016383D01*
X016884Y016542D02*
X017224Y016542D01*
X017164Y016700D02*
X016884Y016700D01*
X016884Y016859D02*
X017164Y016859D01*
X017164Y017017D02*
X016884Y017017D01*
X016884Y017176D02*
X017164Y017176D01*
X017144Y017334D02*
X016884Y017334D01*
X016884Y017493D02*
X017186Y017493D01*
X016884Y017651D02*
X018844Y017651D01*
X018844Y017493D02*
X017702Y017493D01*
X018045Y017334D02*
X018844Y017334D01*
X018844Y017176D02*
X018153Y017176D01*
X018158Y017017D02*
X018844Y017017D01*
X018844Y016859D02*
X018084Y016859D01*
X018084Y016700D02*
X018844Y016700D01*
X018844Y016542D02*
X018084Y016542D01*
X018084Y016383D02*
X018844Y016383D01*
X018844Y016225D02*
X018084Y016225D01*
X018084Y016066D02*
X018787Y016066D01*
X018809Y016121D02*
X018764Y016011D01*
X018764Y015892D01*
X018809Y015782D01*
X018894Y015697D01*
X019004Y015651D01*
X019123Y015651D01*
X019234Y015697D01*
X019318Y015782D01*
X019364Y015892D01*
X019364Y016011D01*
X019318Y016121D01*
X019284Y016156D01*
X019284Y018171D01*
X019303Y018171D01*
X019414Y018217D01*
X019498Y018302D01*
X019544Y018412D01*
X019544Y018531D01*
X019504Y018628D01*
X019504Y019275D01*
X019544Y019372D01*
X019544Y019491D01*
X019498Y019601D01*
X019414Y019686D01*
X019303Y019731D01*
X019184Y019731D01*
X019074Y019686D01*
X018989Y019601D01*
X018944Y019491D01*
X018944Y019372D01*
X018984Y019275D01*
X018984Y018628D01*
X018947Y018539D01*
X018855Y018631D01*
X018068Y018631D01*
X018034Y018666D01*
X017923Y018711D01*
X017804Y018711D01*
X017694Y018666D01*
X017609Y018581D01*
X017564Y018471D01*
X017564Y018352D01*
X017609Y018242D01*
X017694Y018157D01*
X017804Y018111D01*
X017923Y018111D01*
X018034Y018157D01*
X018068Y018191D01*
X018673Y018191D01*
X018844Y018020D01*
X018844Y016156D01*
X018809Y016121D01*
X018764Y015908D02*
X018084Y015908D01*
X018084Y015749D02*
X018841Y015749D01*
X018644Y015531D02*
X018884Y015291D01*
X018884Y014391D01*
X018464Y013851D02*
X018344Y013731D01*
X018464Y013851D02*
X019784Y013851D01*
X020084Y013847D02*
X020464Y013847D01*
X020464Y013689D02*
X020041Y013689D01*
X020464Y013530D02*
X018567Y013530D01*
X018120Y013530D02*
X018084Y013530D01*
X018084Y013372D02*
X020464Y013372D01*
X020464Y013213D02*
X018084Y013213D01*
X018084Y013055D02*
X020464Y013055D01*
X020464Y012896D02*
X018084Y012896D01*
X018084Y012738D02*
X020464Y012738D01*
X020464Y012579D02*
X018084Y012579D01*
X018084Y012421D02*
X020464Y012421D01*
X020464Y012262D02*
X018084Y012262D01*
X018084Y012104D02*
X020464Y012104D01*
X020327Y011945D02*
X018084Y011945D01*
X018319Y011787D02*
X020224Y011787D01*
X020224Y011628D02*
X018478Y011628D01*
X018636Y011470D02*
X020224Y011470D01*
X020715Y010931D02*
X020837Y011054D01*
X020874Y011017D01*
X020984Y010971D01*
X021103Y010971D01*
X021204Y011013D01*
X021204Y010468D01*
X021164Y010371D01*
X021164Y010252D01*
X021209Y010142D01*
X021294Y010057D01*
X021307Y010051D01*
X019284Y010051D01*
X019284Y010760D01*
X019335Y010811D01*
X020595Y010811D01*
X020715Y010931D01*
X020778Y010994D02*
X020928Y010994D01*
X021159Y010994D02*
X021204Y010994D01*
X021204Y010836D02*
X020619Y010836D01*
X021204Y010677D02*
X019284Y010677D01*
X019284Y010519D02*
X021204Y010519D01*
X021164Y010360D02*
X019284Y010360D01*
X019284Y010202D02*
X021184Y010202D01*
X021464Y010311D02*
X021464Y012231D01*
X021524Y012291D01*
X022544Y012291D01*
X022544Y013791D01*
X022424Y013911D01*
X022784Y014271D01*
X022784Y014871D01*
X022964Y015051D01*
X022964Y016971D01*
X023242Y016859D02*
X023280Y016859D01*
X023264Y017017D02*
X023280Y017017D01*
X023280Y017176D02*
X023183Y017176D01*
X023280Y017334D02*
X021144Y017334D01*
X021144Y017176D02*
X022744Y017176D01*
X022664Y017017D02*
X021144Y017017D01*
X021144Y016859D02*
X022686Y016859D01*
X022704Y016700D02*
X021144Y016700D01*
X021144Y016542D02*
X022704Y016542D01*
X022704Y016383D02*
X021144Y016383D01*
X021144Y016225D02*
X022704Y016225D01*
X022704Y016066D02*
X021144Y016066D01*
X021144Y015908D02*
X022704Y015908D01*
X022704Y015749D02*
X021144Y015749D01*
X021144Y015591D02*
X022704Y015591D01*
X022704Y015432D02*
X021144Y015432D01*
X021144Y015274D02*
X022704Y015274D01*
X022660Y015115D02*
X021144Y015115D01*
X021144Y014957D02*
X022538Y014957D01*
X022524Y014798D02*
X021144Y014798D01*
X021144Y014640D02*
X022524Y014640D01*
X022524Y014481D02*
X021176Y014481D01*
X021322Y014323D02*
X022468Y014323D01*
X022252Y014164D02*
X021344Y014164D01*
X021264Y014006D02*
X022138Y014006D01*
X022125Y013847D02*
X021264Y013847D01*
X021264Y013689D02*
X022222Y013689D01*
X022284Y013530D02*
X021264Y013530D01*
X021264Y013372D02*
X022284Y013372D01*
X022284Y013213D02*
X021264Y013213D01*
X021264Y013055D02*
X022284Y013055D01*
X022284Y012896D02*
X021264Y012896D01*
X021264Y012738D02*
X022284Y012738D01*
X022284Y012579D02*
X021264Y012579D01*
X021264Y012421D02*
X021286Y012421D01*
X022804Y013213D02*
X023280Y013213D01*
X023280Y013055D02*
X023003Y013055D01*
X023177Y012896D02*
X023280Y012896D01*
X023280Y012738D02*
X023204Y012738D01*
X023136Y012579D02*
X023280Y012579D01*
X023280Y012421D02*
X023064Y012421D01*
X023064Y012262D02*
X023280Y012262D01*
X023280Y012104D02*
X023064Y012104D01*
X023064Y011945D02*
X023280Y011945D01*
X023280Y011787D02*
X023064Y011787D01*
X023064Y011628D02*
X023280Y011628D01*
X023280Y011470D02*
X023064Y011470D01*
X023064Y011311D02*
X023280Y011311D01*
X023280Y011153D02*
X023064Y011153D01*
X023064Y010994D02*
X023280Y010994D01*
X023280Y010836D02*
X023064Y010836D01*
X023064Y010677D02*
X023280Y010677D01*
X023280Y010519D02*
X023064Y010519D01*
X023064Y010360D02*
X023280Y010360D01*
X023280Y010202D02*
X023064Y010202D01*
X023064Y010043D02*
X023280Y010043D01*
X023280Y009885D02*
X023064Y009885D01*
X023064Y009726D02*
X023280Y009726D01*
X023280Y009568D02*
X023064Y009568D01*
X023064Y009409D02*
X023280Y009409D01*
X023280Y009251D02*
X023064Y009251D01*
X023064Y009092D02*
X023280Y009092D01*
X023280Y008934D02*
X023064Y008934D01*
X023064Y008775D02*
X023280Y008775D01*
X023280Y008617D02*
X023064Y008617D01*
X023064Y008458D02*
X023280Y008458D01*
X023280Y008300D02*
X023064Y008300D01*
X023064Y008141D02*
X023280Y008141D01*
X023280Y007983D02*
X023064Y007983D01*
X023130Y007824D02*
X023280Y007824D01*
X023280Y007666D02*
X023141Y007666D01*
X023064Y007507D02*
X023280Y007507D01*
X023280Y007349D02*
X023064Y007349D01*
X022914Y007190D02*
X023280Y007190D01*
X023280Y007032D02*
X021275Y007032D01*
X021276Y006873D02*
X023280Y006873D01*
X023280Y006715D02*
X021244Y006715D01*
X021244Y006556D02*
X023280Y006556D01*
X023280Y006398D02*
X021244Y006398D01*
X021244Y006239D02*
X023280Y006239D01*
X023280Y006081D02*
X021244Y006081D01*
X021284Y005922D02*
X023280Y005922D01*
X023280Y005764D02*
X023054Y005764D01*
X022837Y005764D02*
X022072Y005764D01*
X021732Y005764D02*
X021264Y005764D01*
X021144Y005605D02*
X021389Y005605D01*
X021452Y005668D02*
X021452Y005668D01*
X021452Y005668D01*
X021276Y005447D02*
X021144Y005447D01*
X021144Y005288D02*
X021276Y005288D01*
X020984Y005871D02*
X020984Y006951D01*
X019564Y006715D02*
X019004Y006715D01*
X018964Y006556D02*
X019504Y006556D01*
X017073Y005151D02*
X017073Y005151D01*
X023212Y005605D02*
X023280Y005605D01*
X023264Y005447D02*
X023280Y005447D01*
X023264Y005288D02*
X023280Y005288D01*
X022424Y008991D02*
X020204Y008991D01*
X019904Y009291D01*
X018973Y011311D02*
X018795Y011311D01*
X022804Y013372D02*
X023280Y013372D01*
X023280Y013530D02*
X022804Y013530D01*
X022804Y013689D02*
X023280Y013689D01*
X023280Y013847D02*
X022802Y013847D01*
X022886Y014006D02*
X023280Y014006D01*
X023280Y014164D02*
X023021Y014164D01*
X023044Y014323D02*
X023280Y014323D01*
X023280Y014481D02*
X023044Y014481D01*
X023044Y014640D02*
X023280Y014640D01*
X023280Y014798D02*
X023078Y014798D01*
X023206Y014957D02*
X023280Y014957D01*
X023280Y015115D02*
X023224Y015115D01*
X023224Y015274D02*
X023280Y015274D01*
X023280Y015432D02*
X023224Y015432D01*
X023224Y015591D02*
X023280Y015591D01*
X023280Y015749D02*
X023224Y015749D01*
X023224Y015908D02*
X023280Y015908D01*
X023280Y016066D02*
X023224Y016066D01*
X023224Y016225D02*
X023280Y016225D01*
X023280Y016383D02*
X023224Y016383D01*
X023224Y016542D02*
X023280Y016542D01*
X023280Y016700D02*
X023224Y016700D01*
X022004Y015531D02*
X021344Y016191D01*
X020524Y016225D02*
X019284Y016225D01*
X019284Y016383D02*
X020524Y016383D01*
X020524Y016542D02*
X019284Y016542D01*
X019284Y016700D02*
X020524Y016700D01*
X020524Y016859D02*
X019284Y016859D01*
X019284Y017017D02*
X020524Y017017D01*
X020524Y017176D02*
X019284Y017176D01*
X019284Y017334D02*
X020524Y017334D01*
X020524Y017493D02*
X019284Y017493D01*
X019284Y017651D02*
X020524Y017651D01*
X020524Y017810D02*
X019284Y017810D01*
X019284Y017968D02*
X020524Y017968D01*
X020524Y018127D02*
X019284Y018127D01*
X019482Y018285D02*
X020524Y018285D01*
X020524Y018444D02*
X019544Y018444D01*
X019514Y018602D02*
X020524Y018602D01*
X020524Y018761D02*
X019504Y018761D01*
X019504Y018919D02*
X020524Y018919D01*
X020524Y019078D02*
X019504Y019078D01*
X019504Y019236D02*
X020524Y019236D01*
X020524Y019395D02*
X019544Y019395D01*
X019518Y019553D02*
X020524Y019553D01*
X020524Y019712D02*
X019350Y019712D01*
X019137Y019712D02*
X018204Y019712D01*
X018204Y019870D02*
X020524Y019870D01*
X020524Y020029D02*
X018204Y020029D01*
X018262Y020187D02*
X018662Y020187D01*
X018535Y020346D02*
X018387Y020346D01*
X018436Y020504D02*
X018488Y020504D01*
X018496Y020663D02*
X018431Y020663D01*
X018366Y020821D02*
X018564Y020821D01*
X018584Y020980D02*
X018343Y020980D01*
X018942Y020504D02*
X018979Y020504D01*
X018979Y020540D02*
X018979Y020083D01*
X018998Y020083D01*
X019072Y020094D01*
X019143Y020118D01*
X019209Y020152D01*
X019270Y020196D01*
X019323Y020248D01*
X019367Y020309D01*
X019401Y020376D01*
X019424Y020447D01*
X019436Y020521D01*
X019436Y020540D01*
X018979Y020540D01*
X018979Y020346D02*
X018942Y020346D01*
X018942Y020187D02*
X018979Y020187D01*
X019259Y020187D02*
X020524Y020187D01*
X020524Y020346D02*
X019386Y020346D01*
X019433Y020504D02*
X020524Y020504D01*
X020524Y020663D02*
X019425Y020663D01*
X019356Y020821D02*
X020524Y020821D01*
X020524Y020980D02*
X019303Y020980D01*
X017555Y020821D02*
X017366Y020821D01*
X017431Y020663D02*
X017489Y020663D01*
X017485Y020504D02*
X017436Y020504D01*
X017387Y020346D02*
X017534Y020346D01*
X017659Y020187D02*
X017262Y020187D01*
X017244Y020029D02*
X017764Y020029D01*
X017764Y019870D02*
X017244Y019870D01*
X017244Y019712D02*
X017764Y019712D01*
X017764Y019553D02*
X017244Y019553D01*
X017244Y019395D02*
X017756Y019395D01*
X017598Y019236D02*
X017244Y019236D01*
X017244Y019078D02*
X017439Y019078D01*
X017281Y018919D02*
X017244Y018919D01*
X016804Y018919D02*
X016644Y018919D01*
X016644Y018761D02*
X016804Y018761D01*
X016724Y018602D02*
X016644Y018602D01*
X017110Y018127D02*
X017767Y018127D01*
X017961Y018127D02*
X018737Y018127D01*
X018844Y017968D02*
X016952Y017968D01*
X016884Y017810D02*
X018844Y017810D01*
X019244Y018471D02*
X019244Y019431D01*
X018970Y019553D02*
X018204Y019553D01*
X018204Y019395D02*
X018944Y019395D01*
X018984Y019236D02*
X018204Y019236D01*
X018061Y019078D02*
X018984Y019078D01*
X018984Y018919D02*
X017903Y018919D01*
X017744Y018761D02*
X018984Y018761D01*
X018973Y018602D02*
X018884Y018602D01*
X017630Y018602D02*
X017586Y018602D01*
X017564Y018444D02*
X017427Y018444D01*
X017269Y018285D02*
X017591Y018285D01*
X016804Y019078D02*
X016608Y019078D01*
X016450Y019236D02*
X016804Y019236D01*
X016804Y019395D02*
X016291Y019395D01*
X016224Y019553D02*
X016804Y019553D01*
X016804Y019712D02*
X016224Y019712D01*
X016224Y019870D02*
X016804Y019870D01*
X016804Y020029D02*
X016224Y020029D01*
X016262Y020187D02*
X016659Y020187D01*
X016534Y020346D02*
X016387Y020346D01*
X016436Y020504D02*
X016485Y020504D01*
X016489Y020663D02*
X016431Y020663D01*
X016366Y020821D02*
X016555Y020821D01*
X016737Y020980D02*
X016184Y020980D01*
X016143Y021118D02*
X016209Y021152D01*
X016270Y021196D01*
X016323Y021248D01*
X016367Y021309D01*
X016401Y021376D01*
X016424Y021447D01*
X016436Y021521D01*
X016436Y021540D01*
X015979Y021540D01*
X015979Y021576D01*
X016436Y021576D01*
X016436Y021595D01*
X016424Y021669D01*
X016401Y021741D01*
X016367Y021807D01*
X016323Y021868D01*
X016270Y021921D01*
X016209Y021965D01*
X016143Y021999D01*
X016072Y022022D01*
X015998Y022033D01*
X015979Y022033D01*
X015979Y021577D01*
X015942Y021577D01*
X015942Y022033D01*
X015923Y022033D01*
X015849Y022022D01*
X015778Y021999D01*
X015711Y021965D01*
X015651Y021921D01*
X015598Y021868D01*
X015554Y021807D01*
X015520Y021741D01*
X015497Y021669D01*
X015485Y021595D01*
X015485Y021576D01*
X015942Y021576D01*
X015942Y021540D01*
X015485Y021540D01*
X015485Y021521D01*
X015497Y021447D01*
X015520Y021376D01*
X015554Y021309D01*
X015598Y021248D01*
X015651Y021196D01*
X015711Y021152D01*
X015778Y021118D01*
X015849Y021094D01*
X015923Y021083D01*
X015942Y021083D01*
X015942Y021540D01*
X015979Y021540D01*
X015979Y021083D01*
X015998Y021083D01*
X016072Y021094D01*
X016143Y021118D01*
X016184Y021138D02*
X016731Y021138D01*
X016554Y021297D02*
X016358Y021297D01*
X016425Y021455D02*
X016488Y021455D01*
X016485Y021614D02*
X016433Y021614D01*
X016384Y021772D02*
X016535Y021772D01*
X016661Y021931D02*
X016256Y021931D01*
X015979Y021931D02*
X015942Y021931D01*
X015942Y021772D02*
X015979Y021772D01*
X015979Y021614D02*
X015942Y021614D01*
X015942Y021455D02*
X015979Y021455D01*
X015979Y021297D02*
X015942Y021297D01*
X015942Y021138D02*
X015979Y021138D01*
X015737Y021138D02*
X015189Y021138D01*
X015229Y021155D02*
X015363Y021289D01*
X015436Y021464D01*
X015436Y021653D01*
X015363Y021827D01*
X015229Y021961D01*
X015055Y022033D01*
X014866Y022033D01*
X014691Y021961D01*
X014557Y021827D01*
X014485Y021653D01*
X014485Y021464D01*
X014557Y021289D01*
X014691Y021155D01*
X014866Y021083D01*
X015055Y021083D01*
X015229Y021155D01*
X015184Y020980D02*
X015737Y020980D01*
X015555Y020821D02*
X015366Y020821D01*
X015363Y020827D02*
X015229Y020961D01*
X015055Y021033D01*
X014866Y021033D01*
X014691Y020961D01*
X014557Y020827D01*
X014485Y020653D01*
X014485Y020464D01*
X014557Y020289D01*
X014691Y020155D01*
X014866Y020083D01*
X015055Y020083D01*
X015229Y020155D01*
X015363Y020289D01*
X015436Y020464D01*
X015436Y020653D01*
X015363Y020827D01*
X015431Y020663D02*
X015489Y020663D01*
X015485Y020504D02*
X015436Y020504D01*
X015387Y020346D02*
X015534Y020346D01*
X015659Y020187D02*
X015262Y020187D01*
X014659Y020187D02*
X014262Y020187D01*
X014184Y020029D02*
X015784Y020029D01*
X015784Y019870D02*
X014184Y019870D01*
X014294Y019712D02*
X015784Y019712D01*
X015784Y019553D02*
X014453Y019553D01*
X014148Y019236D02*
X012311Y019236D01*
X012323Y019248D02*
X012367Y019309D01*
X012401Y019376D01*
X012424Y019447D01*
X012436Y019521D01*
X012436Y019540D01*
X011979Y019540D01*
X011979Y019083D01*
X011998Y019083D01*
X012072Y019094D01*
X012143Y019118D01*
X012209Y019152D01*
X012270Y019196D01*
X012323Y019248D01*
X012407Y019395D02*
X013989Y019395D01*
X013831Y019553D02*
X011979Y019553D01*
X011979Y019395D02*
X011942Y019395D01*
X011942Y019236D02*
X011979Y019236D01*
X011979Y018919D02*
X011942Y018919D01*
X011942Y018761D02*
X011979Y018761D01*
X011979Y018602D02*
X011942Y018602D01*
X011979Y018540D02*
X012436Y018540D01*
X012436Y018521D01*
X012424Y018447D01*
X012401Y018376D01*
X012367Y018309D01*
X012323Y018248D01*
X012270Y018196D01*
X012209Y018152D01*
X012143Y018118D01*
X012072Y018094D01*
X011998Y018083D01*
X011979Y018083D01*
X011979Y018540D01*
X011979Y018444D02*
X011942Y018444D01*
X011942Y018285D02*
X011979Y018285D01*
X011979Y018127D02*
X011942Y018127D01*
X011759Y018127D02*
X011664Y018127D01*
X012161Y018127D02*
X015235Y018127D01*
X015692Y018127D02*
X015904Y018127D01*
X015904Y017968D02*
X015764Y017968D01*
X015738Y017810D02*
X015904Y017810D01*
X015904Y017651D02*
X015684Y017651D01*
X015684Y017493D02*
X015904Y017493D01*
X015904Y017334D02*
X015684Y017334D01*
X015684Y017176D02*
X015904Y017176D01*
X015904Y017017D02*
X015684Y017017D01*
X015684Y016859D02*
X015904Y016859D01*
X015904Y016700D02*
X015684Y016700D01*
X015684Y016542D02*
X015904Y016542D01*
X015904Y016383D02*
X015684Y016383D01*
X015684Y016225D02*
X015904Y016225D01*
X015904Y016066D02*
X015741Y016066D01*
X015764Y015908D02*
X015904Y015908D01*
X015904Y015749D02*
X015686Y015749D01*
X018084Y015591D02*
X020524Y015591D01*
X020524Y015749D02*
X019286Y015749D01*
X019364Y015908D02*
X020524Y015908D01*
X020524Y016066D02*
X019341Y016066D01*
X020524Y015432D02*
X018084Y015432D01*
X018084Y015274D02*
X020524Y015274D01*
X020524Y015115D02*
X018084Y015115D01*
X018084Y014957D02*
X020524Y014957D01*
X020524Y014798D02*
X018084Y014798D01*
X018084Y014640D02*
X020501Y014640D01*
X020404Y014481D02*
X018084Y014481D01*
X018084Y014323D02*
X020404Y014323D01*
X020404Y014164D02*
X018084Y014164D01*
X018084Y014006D02*
X018223Y014006D01*
X020044Y014006D02*
X020404Y014006D01*
X022004Y014271D02*
X022004Y015531D01*
X021314Y017493D02*
X021144Y017493D01*
X021144Y017651D02*
X021312Y017651D01*
X021312Y017810D02*
X021144Y017810D01*
X021144Y017968D02*
X021312Y017968D01*
X021312Y018127D02*
X021144Y018127D01*
X021144Y018285D02*
X021312Y018285D01*
X021312Y018444D02*
X021144Y018444D01*
X021144Y018602D02*
X021312Y018602D01*
X021312Y018761D02*
X021144Y018761D01*
X021144Y018919D02*
X021312Y018919D01*
X021312Y019078D02*
X021144Y019078D01*
X021144Y019236D02*
X021312Y019236D01*
X021312Y019395D02*
X021144Y019395D01*
X021144Y019553D02*
X021312Y019553D01*
X021312Y019712D02*
X021144Y019712D01*
X021144Y019870D02*
X021312Y019870D01*
X021312Y020029D02*
X021144Y020029D01*
X021144Y020187D02*
X021312Y020187D01*
X021312Y020346D02*
X021144Y020346D01*
X021144Y020504D02*
X021312Y020504D01*
X021312Y020663D02*
X021144Y020663D01*
X021144Y020821D02*
X021312Y020821D01*
X021312Y020980D02*
X021144Y020980D01*
X021144Y021138D02*
X021312Y021138D01*
X021312Y021297D02*
X021144Y021297D01*
X021144Y021455D02*
X021312Y021455D01*
X021312Y021614D02*
X021144Y021614D01*
X021144Y021772D02*
X021312Y021772D01*
X021312Y021931D02*
X021144Y021931D01*
X021037Y022089D02*
X021312Y022089D01*
X021312Y022248D02*
X020878Y022248D01*
X021312Y022406D02*
X019280Y022406D01*
X018668Y022406D02*
X005924Y022406D01*
X005924Y022248D02*
X017849Y022248D01*
X017704Y022089D02*
X005924Y022089D01*
X005924Y021931D02*
X006612Y021931D01*
X006671Y021990D02*
X006528Y021847D01*
X006450Y021660D01*
X006450Y021457D01*
X006528Y021269D01*
X006671Y021126D01*
X006859Y021048D01*
X007062Y021048D01*
X007249Y021126D01*
X007393Y021269D01*
X007470Y021457D01*
X007470Y021660D01*
X007393Y021847D01*
X007249Y021990D01*
X007062Y022068D01*
X006859Y022068D01*
X006671Y021990D01*
X006497Y021772D02*
X005924Y021772D01*
X005924Y021614D02*
X006450Y021614D01*
X006451Y021455D02*
X005924Y021455D01*
X005924Y021297D02*
X006516Y021297D01*
X006659Y021138D02*
X005924Y021138D01*
X005924Y020980D02*
X006537Y020980D01*
X006485Y020928D02*
X006590Y021033D01*
X007330Y021033D01*
X007436Y020928D01*
X007436Y020188D01*
X007330Y020083D01*
X006590Y020083D01*
X006485Y020188D01*
X006485Y020928D01*
X006485Y020821D02*
X005924Y020821D01*
X005924Y020663D02*
X006485Y020663D01*
X006485Y020504D02*
X005924Y020504D01*
X005924Y020346D02*
X006485Y020346D01*
X006486Y020187D02*
X005924Y020187D01*
X005924Y020029D02*
X007597Y020029D01*
X007544Y019870D02*
X005924Y019870D01*
X005924Y019712D02*
X007577Y019712D01*
X007779Y019553D02*
X005924Y019553D01*
X005924Y019395D02*
X008485Y019395D01*
X008485Y019553D02*
X007908Y019553D01*
X008135Y019712D02*
X008485Y019712D01*
X008485Y019870D02*
X008294Y019870D01*
X008387Y020346D02*
X008534Y020346D01*
X008485Y020504D02*
X008436Y020504D01*
X008431Y020663D02*
X008489Y020663D01*
X008555Y020821D02*
X008366Y020821D01*
X008184Y020980D02*
X008737Y020980D01*
X008670Y021138D02*
X008189Y021138D01*
X008229Y021155D02*
X008363Y021289D01*
X008436Y021464D01*
X008436Y021653D01*
X008363Y021827D01*
X008229Y021961D01*
X008055Y022033D01*
X007866Y022033D01*
X007691Y021961D01*
X007557Y021827D01*
X007485Y021653D01*
X007485Y021464D01*
X007557Y021289D01*
X007691Y021155D01*
X007866Y021083D01*
X008055Y021083D01*
X008229Y021155D01*
X008367Y021297D02*
X008521Y021297D01*
X008460Y021455D02*
X008432Y021455D01*
X008436Y021614D02*
X008453Y021614D01*
X008497Y021772D02*
X008386Y021772D01*
X008259Y021931D02*
X008612Y021931D01*
X008942Y021455D02*
X008979Y021455D01*
X008979Y021297D02*
X008942Y021297D01*
X008942Y021138D02*
X008979Y021138D01*
X010189Y021138D02*
X010731Y021138D01*
X010691Y021155D02*
X010866Y021083D01*
X011055Y021083D01*
X011229Y021155D01*
X011363Y021289D01*
X011436Y021464D01*
X011436Y021653D01*
X011363Y021827D01*
X011229Y021961D01*
X011055Y022033D01*
X010866Y022033D01*
X010691Y021961D01*
X010557Y021827D01*
X010485Y021653D01*
X010485Y021464D01*
X010557Y021289D01*
X010691Y021155D01*
X010741Y020980D02*
X010184Y020980D01*
X010366Y020821D02*
X010564Y020821D01*
X010496Y020663D02*
X010431Y020663D01*
X010436Y020504D02*
X010488Y020504D01*
X010535Y020346D02*
X010387Y020346D01*
X010942Y020663D02*
X010979Y020663D01*
X010979Y020821D02*
X010942Y020821D01*
X010942Y020980D02*
X010979Y020980D01*
X011179Y020980D02*
X011737Y020980D01*
X011691Y020961D02*
X011557Y020827D01*
X011485Y020653D01*
X011485Y020464D01*
X011557Y020289D01*
X011691Y020155D01*
X011866Y020083D01*
X012055Y020083D01*
X012229Y020155D01*
X012363Y020289D01*
X012436Y020464D01*
X012436Y020653D01*
X012363Y020827D01*
X012229Y020961D01*
X012055Y021033D01*
X011866Y021033D01*
X011691Y020961D01*
X011731Y021138D02*
X011189Y021138D01*
X011367Y021297D02*
X011554Y021297D01*
X011557Y021289D02*
X011691Y021155D01*
X011866Y021083D01*
X012055Y021083D01*
X012229Y021155D01*
X012363Y021289D01*
X012436Y021464D01*
X012436Y021653D01*
X012363Y021827D01*
X012229Y021961D01*
X012055Y022033D01*
X011866Y022033D01*
X011691Y021961D01*
X011557Y021827D01*
X011485Y021653D01*
X011485Y021464D01*
X011557Y021289D01*
X011488Y021455D02*
X011432Y021455D01*
X011436Y021614D02*
X011485Y021614D01*
X011535Y021772D02*
X011386Y021772D01*
X011259Y021931D02*
X011661Y021931D01*
X012259Y021931D02*
X012665Y021931D01*
X012651Y021921D02*
X012598Y021868D01*
X012554Y021807D01*
X012520Y021741D01*
X012497Y021669D01*
X012485Y021595D01*
X012485Y021576D01*
X012942Y021576D01*
X012942Y021540D01*
X012485Y021540D01*
X012485Y021521D01*
X012497Y021447D01*
X012520Y021376D01*
X012554Y021309D01*
X012598Y021248D01*
X012651Y021196D01*
X012711Y021152D01*
X012778Y021118D01*
X012849Y021094D01*
X012923Y021083D01*
X012942Y021083D01*
X012942Y021540D01*
X012979Y021540D01*
X012979Y021576D01*
X013436Y021576D01*
X013436Y021595D01*
X013424Y021669D01*
X013401Y021741D01*
X013367Y021807D01*
X013323Y021868D01*
X013270Y021921D01*
X013209Y021965D01*
X013143Y021999D01*
X013072Y022022D01*
X012998Y022033D01*
X012979Y022033D01*
X012979Y021577D01*
X012942Y021577D01*
X012942Y022033D01*
X012923Y022033D01*
X012849Y022022D01*
X012778Y021999D01*
X012711Y021965D01*
X012651Y021921D01*
X012536Y021772D02*
X012386Y021772D01*
X012436Y021614D02*
X012488Y021614D01*
X012495Y021455D02*
X012432Y021455D01*
X012367Y021297D02*
X012562Y021297D01*
X012737Y021138D02*
X012189Y021138D01*
X012184Y020980D02*
X012737Y020980D01*
X012691Y020961D02*
X012557Y020827D01*
X012485Y020653D01*
X012485Y020464D01*
X012557Y020289D01*
X012691Y020155D01*
X012866Y020083D01*
X013055Y020083D01*
X013229Y020155D01*
X013363Y020289D01*
X013436Y020464D01*
X013436Y020653D01*
X013363Y020827D01*
X013229Y020961D01*
X013055Y021033D01*
X012866Y021033D01*
X012691Y020961D01*
X012555Y020821D02*
X012366Y020821D01*
X012431Y020663D02*
X012489Y020663D01*
X012485Y020504D02*
X012436Y020504D01*
X012387Y020346D02*
X012534Y020346D01*
X012659Y020187D02*
X012262Y020187D01*
X012025Y020029D02*
X013744Y020029D01*
X013744Y019870D02*
X012320Y019870D01*
X012410Y019712D02*
X013744Y019712D01*
X013659Y020187D02*
X013262Y020187D01*
X013387Y020346D02*
X013534Y020346D01*
X013485Y020504D02*
X013436Y020504D01*
X013431Y020663D02*
X013489Y020663D01*
X013555Y020821D02*
X013366Y020821D01*
X013184Y020980D02*
X013737Y020980D01*
X013731Y021138D02*
X013184Y021138D01*
X013209Y021152D02*
X013270Y021196D01*
X013323Y021248D01*
X013367Y021309D01*
X013401Y021376D01*
X013424Y021447D01*
X013436Y021521D01*
X013436Y021540D01*
X012979Y021540D01*
X012979Y021083D01*
X012998Y021083D01*
X013072Y021094D01*
X013143Y021118D01*
X013209Y021152D01*
X013358Y021297D02*
X013554Y021297D01*
X013557Y021289D02*
X013691Y021155D01*
X013866Y021083D01*
X014055Y021083D01*
X014229Y021155D01*
X014363Y021289D01*
X014436Y021464D01*
X014436Y021653D01*
X014363Y021827D01*
X014229Y021961D01*
X014055Y022033D01*
X013866Y022033D01*
X013691Y021961D01*
X013557Y021827D01*
X013485Y021653D01*
X013485Y021464D01*
X013557Y021289D01*
X013488Y021455D02*
X013425Y021455D01*
X013433Y021614D02*
X013485Y021614D01*
X013535Y021772D02*
X013384Y021772D01*
X013256Y021931D02*
X013661Y021931D01*
X014259Y021931D02*
X014661Y021931D01*
X014535Y021772D02*
X014386Y021772D01*
X014436Y021614D02*
X014485Y021614D01*
X014488Y021455D02*
X014432Y021455D01*
X014367Y021297D02*
X014554Y021297D01*
X014731Y021138D02*
X014189Y021138D01*
X014184Y020980D02*
X014737Y020980D01*
X014555Y020821D02*
X014366Y020821D01*
X014431Y020663D02*
X014489Y020663D01*
X014485Y020504D02*
X014436Y020504D01*
X014387Y020346D02*
X014534Y020346D01*
X015367Y021297D02*
X015562Y021297D01*
X015495Y021455D02*
X015432Y021455D01*
X015436Y021614D02*
X015488Y021614D01*
X015536Y021772D02*
X015386Y021772D01*
X015259Y021931D02*
X015665Y021931D01*
X017259Y021931D02*
X017661Y021931D01*
X017535Y021772D02*
X017386Y021772D01*
X017346Y021138D02*
X017189Y021138D01*
X017184Y020980D02*
X017504Y020980D01*
X015746Y019078D02*
X011664Y019078D01*
X012271Y018919D02*
X015905Y018919D01*
X016024Y018761D02*
X012390Y018761D01*
X012434Y018602D02*
X016024Y018602D01*
X016024Y018444D02*
X012423Y018444D01*
X012350Y018285D02*
X015927Y018285D01*
X011979Y019712D02*
X011942Y019712D01*
X011942Y019870D02*
X011979Y019870D01*
X011979Y020029D02*
X011942Y020029D01*
X011895Y020029D02*
X011577Y020029D01*
X011659Y020187D02*
X011419Y020187D01*
X011386Y020346D02*
X011534Y020346D01*
X011485Y020504D02*
X011433Y020504D01*
X011425Y020663D02*
X011489Y020663D01*
X011555Y020821D02*
X011356Y020821D01*
X010554Y021297D02*
X010367Y021297D01*
X010432Y021455D02*
X010488Y021455D01*
X010485Y021614D02*
X010436Y021614D01*
X010386Y021772D02*
X010535Y021772D01*
X010661Y021931D02*
X010259Y021931D01*
X007731Y021138D02*
X007262Y021138D01*
X007383Y020980D02*
X007737Y020980D01*
X007555Y020821D02*
X007436Y020821D01*
X007436Y020663D02*
X007489Y020663D01*
X007485Y020504D02*
X007436Y020504D01*
X007436Y020346D02*
X007534Y020346D01*
X007435Y020187D02*
X007659Y020187D01*
X007554Y021297D02*
X007404Y021297D01*
X007470Y021455D02*
X007488Y021455D01*
X007485Y021614D02*
X007470Y021614D01*
X007423Y021772D02*
X007535Y021772D01*
X007661Y021931D02*
X007309Y021931D01*
X008485Y019236D02*
X005924Y019236D01*
X005924Y019078D02*
X009519Y019078D01*
X009361Y018919D02*
X009271Y018919D01*
X008650Y018919D02*
X005924Y018919D01*
X005924Y018761D02*
X008530Y018761D01*
X008485Y018602D02*
X005924Y018602D01*
X005924Y018444D02*
X008493Y018444D01*
X008561Y018285D02*
X005924Y018285D01*
X005924Y018127D02*
X008759Y018127D01*
X009161Y018127D02*
X009437Y018127D01*
X009596Y017968D02*
X005924Y017968D01*
X005924Y017810D02*
X009724Y017810D01*
X009724Y017651D02*
X005924Y017651D01*
X005924Y017493D02*
X009771Y017493D01*
X009930Y017334D02*
X005924Y017334D01*
X005924Y017176D02*
X010088Y017176D01*
X010235Y017651D02*
X011048Y017651D01*
X012942Y021138D02*
X012979Y021138D01*
X012979Y021297D02*
X012942Y021297D01*
X012942Y021455D02*
X012979Y021455D01*
X012979Y021614D02*
X012942Y021614D01*
X012942Y021772D02*
X012979Y021772D01*
X012979Y021931D02*
X012942Y021931D01*
D18*
X013960Y020558D02*
X013964Y020555D01*
X013964Y019731D01*
X014384Y019311D01*
X015824Y019311D01*
X016244Y018891D01*
X016244Y018291D01*
X016124Y018171D01*
X016124Y011571D01*
X015944Y011391D01*
X015944Y011211D01*
X015824Y011091D01*
X015824Y010911D01*
X015764Y010851D01*
X015764Y010431D01*
X016004Y010731D02*
X016004Y011031D01*
X016124Y011151D01*
X016124Y011331D01*
X016304Y011511D01*
X016304Y018111D01*
X016424Y018231D01*
X016424Y018951D01*
X016004Y019371D01*
X016004Y020515D01*
X015960Y020558D01*
X016960Y020558D02*
X017024Y020495D01*
X017024Y018591D01*
X016484Y018051D01*
X016484Y011451D01*
X016304Y011271D01*
X016304Y010971D01*
X016664Y011151D02*
X016664Y017991D01*
X017984Y019311D01*
X017984Y020535D01*
X017960Y020558D01*
X018164Y021111D02*
X017684Y021111D01*
X017444Y021351D01*
X017444Y021411D01*
X017324Y021531D01*
X016987Y021531D01*
X016960Y021558D01*
X016904Y021615D01*
X017924Y021595D02*
X017960Y021558D01*
X017924Y021595D02*
X017924Y022011D01*
X017984Y022071D01*
X018644Y022071D01*
X018764Y022191D01*
X019184Y022191D01*
X019304Y022071D01*
X020744Y022071D01*
X020924Y021891D01*
X020924Y014511D01*
X020804Y014391D01*
X020804Y014091D01*
X020864Y014031D01*
X020864Y011931D01*
X020624Y011691D01*
X020624Y011151D01*
X020504Y011031D01*
X019244Y011031D01*
X019064Y010851D01*
X019064Y009891D01*
X019124Y009831D01*
X022304Y009831D01*
X022544Y010071D01*
X022604Y009651D02*
X018944Y009651D01*
X018884Y009711D01*
X018884Y010911D01*
X019184Y011211D01*
X020324Y011211D01*
X020444Y011331D01*
X020444Y011751D01*
X020684Y011991D01*
X020684Y013971D01*
X020624Y014031D01*
X020624Y014451D01*
X020744Y014571D01*
X020744Y021231D01*
X020624Y021351D01*
X019364Y021351D01*
X019124Y021111D01*
X018764Y021111D01*
X018524Y021351D01*
X018404Y021351D01*
X018164Y021111D01*
X017864Y018411D02*
X018764Y018411D01*
X019064Y018111D01*
X019064Y015951D01*
X017684Y016791D02*
X017624Y016851D01*
X017684Y016791D02*
X017684Y011751D01*
X017984Y011451D01*
X018104Y011451D01*
X018524Y011031D01*
X018524Y007611D01*
X018944Y007191D01*
X019844Y007191D01*
X019964Y007071D01*
X019964Y006471D01*
X019904Y006411D01*
X019904Y006051D01*
X020144Y005811D01*
X020144Y005631D01*
X019904Y005511D02*
X019784Y005391D01*
X019904Y005511D02*
X019904Y005811D01*
X019724Y005991D01*
X019724Y006471D01*
X019784Y006531D01*
X019784Y006951D01*
X019724Y007011D01*
X018884Y007011D01*
X018344Y007551D01*
X018344Y010971D01*
X018044Y011271D01*
X017924Y011271D01*
X017504Y011691D01*
X017504Y016491D01*
X017444Y016551D01*
X017444Y016671D01*
X017384Y016731D01*
X017384Y017271D01*
X017444Y017331D01*
X017864Y017091D02*
X017864Y011811D01*
X018044Y011631D01*
X018164Y011631D01*
X018704Y011091D01*
X018704Y007671D01*
X019004Y007371D01*
X019904Y007371D01*
X020144Y007131D01*
X020144Y006171D01*
X020924Y005811D02*
X020984Y005871D01*
X020924Y005811D02*
X020924Y005211D01*
X020864Y005151D01*
X019544Y005151D01*
X019364Y005331D01*
X017204Y005331D01*
X017084Y005451D01*
X015884Y005271D02*
X015884Y006351D01*
X015944Y006411D01*
X013364Y006711D02*
X013124Y006951D01*
X013364Y006711D02*
X018704Y006711D01*
X019364Y007671D02*
X019844Y007671D01*
X020204Y007311D01*
X022724Y007311D01*
X022844Y007431D01*
X022844Y007731D01*
X022844Y012711D01*
X022904Y012771D01*
X021044Y014211D02*
X021044Y011271D01*
X015464Y015951D02*
X015464Y017931D01*
X015344Y017811D01*
X011624Y017811D01*
X011444Y017991D01*
X011444Y019851D01*
X011204Y020091D01*
X008204Y020091D01*
X007964Y019851D01*
X007844Y019851D01*
X009464Y018711D02*
X009764Y019011D01*
X010844Y019011D01*
X010964Y019131D01*
X010964Y019555D01*
X010960Y019558D01*
X009464Y018711D02*
X009464Y018411D01*
X009944Y017931D01*
X009944Y017631D01*
X010184Y017391D01*
X011204Y017391D01*
X011804Y013731D02*
X007784Y013731D01*
X011084Y011571D02*
X011264Y011751D01*
X012224Y011751D01*
X011984Y011991D02*
X011924Y012051D01*
X011924Y013611D01*
X011804Y013731D01*
X011084Y011571D02*
X011084Y011271D01*
X010724Y010911D01*
X008084Y010911D01*
X011624Y011391D02*
X011684Y011331D01*
X011684Y011091D01*
X011804Y010971D01*
X011804Y008271D01*
X011684Y008151D01*
X008084Y008151D01*
X011144Y007431D02*
X011504Y007791D01*
X011864Y007791D01*
X011984Y007911D01*
X011984Y011151D01*
X011924Y011211D01*
X011144Y007431D02*
X011144Y005751D01*
X010964Y005571D01*
X008024Y005571D01*
M02*
