G75*
%MOIN*%
%OFA0B0*%
%FSLAX24Y24*%
%IPPOS*%
%LPD*%
%AMOC8*
5,1,8,0,0,1.08239X$1,22.5*
%
%ADD10C,0.0000*%
%ADD11C,0.0030*%
%ADD12C,0.0050*%
%ADD13C,0.0060*%
%ADD14R,0.0300X0.0180*%
%ADD15C,0.0160*%
%ADD16R,0.0180X0.0300*%
%ADD17C,0.0020*%
D10*
X005744Y004971D02*
X023460Y004971D01*
X023460Y017570D01*
X021492Y017570D01*
X021492Y022688D01*
X005744Y022688D01*
X005744Y004971D01*
X015484Y007674D02*
X015486Y007721D01*
X015492Y007768D01*
X015501Y007814D01*
X015515Y007859D01*
X015532Y007903D01*
X015553Y007946D01*
X015577Y007986D01*
X015604Y008025D01*
X015635Y008061D01*
X015668Y008094D01*
X015704Y008125D01*
X015743Y008152D01*
X015783Y008176D01*
X015826Y008197D01*
X015870Y008214D01*
X015915Y008228D01*
X015961Y008237D01*
X016008Y008243D01*
X016055Y008245D01*
X016102Y008243D01*
X016149Y008237D01*
X016195Y008228D01*
X016240Y008214D01*
X016284Y008197D01*
X016327Y008176D01*
X016367Y008152D01*
X016406Y008125D01*
X016442Y008094D01*
X016475Y008061D01*
X016506Y008025D01*
X016533Y007986D01*
X016557Y007946D01*
X016578Y007903D01*
X016595Y007859D01*
X016609Y007814D01*
X016618Y007768D01*
X016624Y007721D01*
X016626Y007674D01*
X016624Y007627D01*
X016618Y007580D01*
X016609Y007534D01*
X016595Y007489D01*
X016578Y007445D01*
X016557Y007402D01*
X016533Y007362D01*
X016506Y007323D01*
X016475Y007287D01*
X016442Y007254D01*
X016406Y007223D01*
X016367Y007196D01*
X016327Y007172D01*
X016284Y007151D01*
X016240Y007134D01*
X016195Y007120D01*
X016149Y007111D01*
X016102Y007105D01*
X016055Y007103D01*
X016008Y007105D01*
X015961Y007111D01*
X015915Y007120D01*
X015870Y007134D01*
X015826Y007151D01*
X015783Y007172D01*
X015743Y007196D01*
X015704Y007223D01*
X015668Y007254D01*
X015635Y007287D01*
X015604Y007323D01*
X015577Y007362D01*
X015553Y007402D01*
X015532Y007445D01*
X015515Y007489D01*
X015501Y007534D01*
X015492Y007580D01*
X015486Y007627D01*
X015484Y007674D01*
X021044Y017200D02*
X021047Y017179D01*
X021053Y017159D01*
X021063Y017141D01*
X021075Y017124D01*
X021091Y017110D01*
X021108Y017099D01*
X021128Y017091D01*
X021148Y017086D01*
X021169Y017085D01*
X021190Y017088D01*
X021210Y017094D01*
X021228Y017104D01*
X021245Y017116D01*
X021259Y017132D01*
X021270Y017149D01*
X021278Y017169D01*
X021283Y017189D01*
X021284Y017210D01*
D11*
X020193Y017234D02*
X019879Y017547D01*
X019879Y017390D02*
X020193Y017390D01*
X020193Y017547D02*
X019879Y017234D01*
X020036Y017234D02*
X020036Y017547D01*
X020179Y018326D02*
X020179Y018471D01*
X020227Y018519D01*
X020324Y018519D01*
X020372Y018471D01*
X020372Y018326D01*
X020372Y018422D02*
X020469Y018519D01*
X020469Y018620D02*
X020276Y018814D01*
X020227Y018814D01*
X020179Y018765D01*
X020179Y018669D01*
X020227Y018620D01*
X020469Y018620D02*
X020469Y018814D01*
X020421Y018915D02*
X020227Y019108D01*
X020421Y019108D01*
X020469Y019060D01*
X020469Y018963D01*
X020421Y018915D01*
X020227Y018915D01*
X020179Y018963D01*
X020179Y019060D01*
X020227Y019108D01*
X020179Y018326D02*
X020469Y018326D01*
X018967Y018247D02*
X018677Y018247D01*
X018677Y018392D01*
X018725Y018441D01*
X018822Y018441D01*
X018871Y018392D01*
X018871Y018247D01*
X018871Y018344D02*
X018967Y018441D01*
X018967Y018542D02*
X018967Y018735D01*
X018967Y018639D02*
X018677Y018639D01*
X018774Y018542D01*
X018774Y018837D02*
X018725Y018837D01*
X018677Y018885D01*
X018677Y018982D01*
X018725Y019030D01*
X018919Y019030D01*
X018967Y018982D01*
X018967Y018885D01*
X018919Y018837D01*
X018822Y018885D02*
X018774Y018837D01*
X018822Y018885D02*
X018822Y019030D01*
X019989Y015076D02*
X020303Y015076D01*
X020450Y015076D02*
X020607Y014919D01*
X020763Y015076D01*
X020763Y014605D01*
X020910Y014605D02*
X020910Y015076D01*
X021145Y015076D01*
X021224Y014997D01*
X021224Y014840D01*
X021145Y014762D01*
X020910Y014762D01*
X021371Y014684D02*
X021371Y014605D01*
X021371Y014684D02*
X021684Y014997D01*
X021684Y015076D01*
X021371Y015076D01*
X021831Y015076D02*
X021831Y014840D01*
X021988Y014919D01*
X022066Y014919D01*
X022145Y014840D01*
X022145Y014684D01*
X022066Y014605D01*
X021909Y014605D01*
X021831Y014684D01*
X021831Y015076D02*
X022145Y015076D01*
X020450Y015076D02*
X020450Y014605D01*
X020146Y014605D02*
X020146Y015076D01*
X020132Y012512D02*
X020180Y012512D01*
X020228Y012463D01*
X020277Y012512D01*
X020325Y012512D01*
X020374Y012463D01*
X020374Y012367D01*
X020325Y012318D01*
X020374Y012217D02*
X020374Y012024D01*
X020374Y012120D02*
X020083Y012120D01*
X020180Y012024D01*
X020132Y011922D02*
X020228Y011922D01*
X020277Y011874D01*
X020277Y011729D01*
X020374Y011729D02*
X020083Y011729D01*
X020083Y011874D01*
X020132Y011922D01*
X020277Y011826D02*
X020374Y011922D01*
X020132Y012318D02*
X020083Y012367D01*
X020083Y012463D01*
X020132Y012512D01*
X020228Y012463D02*
X020228Y012415D01*
X019683Y011773D02*
X019586Y011773D01*
X019538Y011725D01*
X019538Y011531D01*
X019731Y011725D01*
X019731Y011531D01*
X019683Y011483D01*
X019586Y011483D01*
X019538Y011531D01*
X019437Y011531D02*
X019388Y011483D01*
X019292Y011483D01*
X019243Y011531D01*
X019243Y011580D01*
X019292Y011628D01*
X019388Y011628D01*
X019437Y011580D01*
X019437Y011531D01*
X019388Y011628D02*
X019437Y011676D01*
X019437Y011725D01*
X019388Y011773D01*
X019292Y011773D01*
X019243Y011725D01*
X019243Y011676D01*
X019292Y011628D01*
X019142Y011628D02*
X019142Y011725D01*
X019094Y011773D01*
X018949Y011773D01*
X018949Y011483D01*
X018949Y011580D02*
X019094Y011580D01*
X019142Y011628D01*
X018847Y011773D02*
X018847Y011483D01*
X018654Y011483D02*
X018654Y011773D01*
X018751Y011676D01*
X018847Y011773D01*
X018553Y011725D02*
X018553Y011676D01*
X018504Y011628D01*
X018359Y011628D01*
X018359Y011483D02*
X018359Y011773D01*
X018504Y011773D01*
X018553Y011725D01*
X018504Y011628D02*
X018553Y011580D01*
X018553Y011531D01*
X018504Y011483D01*
X018359Y011483D01*
X018132Y011511D02*
X017842Y011511D01*
X017842Y011656D01*
X017890Y011705D01*
X017987Y011705D01*
X018035Y011656D01*
X018035Y011511D01*
X018132Y011410D02*
X017842Y011410D01*
X017938Y011313D01*
X017842Y011217D01*
X018132Y011217D01*
X018083Y011067D02*
X017842Y011067D01*
X017842Y011019D02*
X017842Y011115D01*
X018083Y011067D02*
X018132Y011019D01*
X018132Y010970D01*
X018083Y010922D01*
X017987Y010724D02*
X017987Y010627D01*
X018132Y010627D02*
X017842Y010627D01*
X017842Y010821D01*
X017842Y010526D02*
X017842Y010333D01*
X018132Y010333D01*
X018132Y010526D01*
X017987Y010429D02*
X017987Y010333D01*
X017987Y010231D02*
X018035Y010183D01*
X018035Y010038D01*
X018035Y010135D02*
X018132Y010231D01*
X017987Y010231D02*
X017890Y010231D01*
X017842Y010183D01*
X017842Y010038D01*
X018132Y010038D01*
X018132Y009937D02*
X017938Y009937D01*
X017842Y009840D01*
X017938Y009743D01*
X018132Y009743D01*
X017987Y009743D02*
X017987Y009937D01*
X018629Y009662D02*
X018629Y009468D01*
X018629Y009565D02*
X018339Y009565D01*
X018436Y009468D01*
X018484Y009367D02*
X018533Y009319D01*
X018533Y009173D01*
X018629Y009173D02*
X018339Y009173D01*
X018339Y009319D01*
X018388Y009367D01*
X018484Y009367D01*
X018533Y009270D02*
X018629Y009367D01*
X019229Y009384D02*
X019229Y009239D01*
X019519Y009239D01*
X019422Y009239D02*
X019422Y009384D01*
X019374Y009432D01*
X019277Y009432D01*
X019229Y009384D01*
X019277Y009534D02*
X019229Y009582D01*
X019229Y009679D01*
X019277Y009727D01*
X019325Y009727D01*
X019519Y009534D01*
X019519Y009727D01*
X019519Y009432D02*
X019422Y009336D01*
X020848Y009180D02*
X020848Y008890D01*
X020848Y008987D02*
X020993Y008987D01*
X021041Y009035D01*
X021041Y009132D01*
X020993Y009180D01*
X020848Y009180D01*
X020945Y008987D02*
X021041Y008890D01*
X021143Y008890D02*
X021336Y008890D01*
X021239Y008890D02*
X021239Y009180D01*
X021143Y009084D01*
X021437Y009132D02*
X021486Y009180D01*
X021582Y009180D01*
X021631Y009132D01*
X021631Y009084D01*
X021437Y008890D01*
X021631Y008890D01*
X022818Y008926D02*
X022818Y009120D01*
X022866Y009120D01*
X023060Y008926D01*
X023108Y008926D01*
X023108Y008825D02*
X023108Y008631D01*
X023108Y008728D02*
X022818Y008728D01*
X022915Y008631D01*
X022963Y008530D02*
X023011Y008482D01*
X023011Y008337D01*
X023011Y008434D02*
X023108Y008530D01*
X022963Y008530D02*
X022866Y008530D01*
X022818Y008482D01*
X022818Y008337D01*
X023108Y008337D01*
X021504Y007505D02*
X021504Y007456D01*
X021456Y007408D01*
X021359Y007408D01*
X021310Y007456D01*
X021310Y007505D01*
X021359Y007553D01*
X021456Y007553D01*
X021504Y007505D01*
X021456Y007408D02*
X021504Y007360D01*
X021504Y007311D01*
X021456Y007263D01*
X021359Y007263D01*
X021310Y007311D01*
X021310Y007360D01*
X021359Y007408D01*
X021209Y007263D02*
X021016Y007263D01*
X021113Y007263D02*
X021113Y007553D01*
X021016Y007456D01*
X020915Y007408D02*
X020866Y007360D01*
X020721Y007360D01*
X020818Y007360D02*
X020915Y007263D01*
X020915Y007408D02*
X020915Y007505D01*
X020866Y007553D01*
X020721Y007553D01*
X020721Y007263D01*
X022599Y007116D02*
X022647Y007164D01*
X022696Y007164D01*
X022744Y007116D01*
X022792Y007164D01*
X022841Y007164D01*
X022889Y007116D01*
X022889Y007019D01*
X022841Y006971D01*
X022889Y006870D02*
X022889Y006676D01*
X022696Y006870D01*
X022647Y006870D01*
X022599Y006821D01*
X022599Y006725D01*
X022647Y006676D01*
X022647Y006575D02*
X022841Y006382D01*
X022889Y006430D01*
X022889Y006527D01*
X022841Y006575D01*
X022647Y006575D01*
X022599Y006527D01*
X022599Y006430D01*
X022647Y006382D01*
X022841Y006382D01*
X022841Y006280D02*
X022647Y006280D01*
X022599Y006232D01*
X022599Y006135D01*
X022647Y006087D01*
X022696Y006087D01*
X022744Y006135D01*
X022744Y006280D01*
X022841Y006280D02*
X022889Y006232D01*
X022889Y006135D01*
X022841Y006087D01*
X022889Y005986D02*
X022889Y005792D01*
X022696Y005986D01*
X022647Y005986D01*
X022599Y005937D01*
X022599Y005841D01*
X022647Y005792D01*
X022647Y006971D02*
X022599Y007019D01*
X022599Y007116D01*
X022744Y007116D02*
X022744Y007068D01*
X017492Y006446D02*
X017202Y006446D01*
X017202Y006591D01*
X017250Y006639D01*
X017347Y006639D01*
X017395Y006591D01*
X017395Y006446D01*
X017347Y006345D02*
X017347Y006151D01*
X017299Y006151D02*
X017202Y006248D01*
X017299Y006345D01*
X017492Y006345D01*
X017492Y006151D02*
X017299Y006151D01*
X017347Y006050D02*
X017347Y005857D01*
X017250Y005755D02*
X017202Y005707D01*
X017202Y005610D01*
X017250Y005562D01*
X017444Y005562D01*
X017492Y005610D01*
X017492Y005707D01*
X017444Y005755D01*
X017492Y005857D02*
X017202Y005857D01*
X017202Y006050D02*
X017492Y006050D01*
X016459Y005981D02*
X016265Y006175D01*
X016217Y006175D01*
X016168Y006126D01*
X016168Y006030D01*
X016217Y005981D01*
X016217Y005880D02*
X016168Y005832D01*
X016168Y005735D01*
X016217Y005687D01*
X016410Y005687D01*
X016459Y005735D01*
X016459Y005832D01*
X016410Y005880D01*
X016459Y005981D02*
X016459Y006175D01*
X014587Y006683D02*
X014394Y006683D01*
X014587Y006877D01*
X014587Y006925D01*
X014539Y006974D01*
X014442Y006974D01*
X014394Y006925D01*
X014293Y006925D02*
X014099Y006732D01*
X014148Y006683D01*
X014244Y006683D01*
X014293Y006732D01*
X014293Y006925D01*
X014244Y006974D01*
X014148Y006974D01*
X014099Y006925D01*
X014099Y006732D01*
X013998Y006925D02*
X013805Y006732D01*
X013805Y006683D01*
X013705Y006683D02*
X013608Y006683D01*
X013656Y006683D02*
X013656Y006974D01*
X013608Y006974D02*
X013705Y006974D01*
X013805Y006974D02*
X013998Y006974D01*
X013998Y006925D01*
X013507Y006925D02*
X013459Y006974D01*
X013362Y006974D01*
X013313Y006925D01*
X013313Y006877D01*
X013362Y006828D01*
X013459Y006828D01*
X013507Y006780D01*
X013507Y006732D01*
X013459Y006683D01*
X013362Y006683D01*
X013313Y006732D01*
X012041Y005972D02*
X011993Y006021D01*
X011944Y006021D01*
X011896Y005972D01*
X011896Y005827D01*
X011993Y005827D01*
X012041Y005876D01*
X012041Y005972D01*
X011896Y005827D02*
X011799Y005924D01*
X011751Y006021D01*
X012041Y005726D02*
X012041Y005533D01*
X012041Y005629D02*
X011751Y005629D01*
X011847Y005533D01*
X011799Y005432D02*
X011896Y005432D01*
X011944Y005383D01*
X011944Y005238D01*
X011944Y005335D02*
X012041Y005432D01*
X012041Y005238D02*
X011751Y005238D01*
X011751Y005383D01*
X011799Y005432D01*
X010582Y005424D02*
X010533Y005472D01*
X010582Y005424D02*
X010582Y005327D01*
X010533Y005278D01*
X010340Y005278D01*
X010291Y005327D01*
X010291Y005424D01*
X010340Y005472D01*
X010340Y005573D02*
X010291Y005622D01*
X010291Y005718D01*
X010340Y005767D01*
X010388Y005767D01*
X010437Y005718D01*
X010485Y005767D01*
X010533Y005767D01*
X010582Y005718D01*
X010582Y005622D01*
X010533Y005573D01*
X010437Y005670D02*
X010437Y005718D01*
X009115Y005603D02*
X008824Y005603D01*
X008969Y005458D01*
X008969Y005651D01*
X008969Y005357D02*
X008873Y005357D01*
X008824Y005308D01*
X008824Y005163D01*
X009115Y005163D01*
X009018Y005163D02*
X009018Y005308D01*
X008969Y005357D01*
X009018Y005260D02*
X009115Y005357D01*
X008740Y006306D02*
X008789Y006355D01*
X008789Y006452D01*
X008740Y006500D01*
X008789Y006601D02*
X008498Y006601D01*
X008547Y006500D02*
X008498Y006452D01*
X008498Y006355D01*
X008547Y006306D01*
X008740Y006306D01*
X008644Y006601D02*
X008644Y006795D01*
X008595Y006896D02*
X008498Y006993D01*
X008789Y006993D01*
X008789Y007089D02*
X008789Y006896D01*
X008789Y006795D02*
X008498Y006795D01*
X008547Y007626D02*
X008498Y007675D01*
X008498Y007772D01*
X008547Y007820D01*
X008498Y007921D02*
X008789Y007921D01*
X008740Y007820D02*
X008789Y007772D01*
X008789Y007675D01*
X008740Y007626D01*
X008547Y007626D01*
X008644Y007921D02*
X008644Y008115D01*
X008547Y008216D02*
X008498Y008264D01*
X008498Y008361D01*
X008547Y008409D01*
X008595Y008409D01*
X008789Y008216D01*
X008789Y008409D01*
X008789Y008115D02*
X008498Y008115D01*
X009243Y008071D02*
X009243Y008168D01*
X009291Y008216D01*
X009340Y008216D01*
X009388Y008168D01*
X009436Y008216D01*
X009485Y008216D01*
X009533Y008168D01*
X009533Y008071D01*
X009485Y008023D01*
X009533Y007922D02*
X009436Y007825D01*
X009436Y007873D02*
X009436Y007728D01*
X009533Y007728D02*
X009243Y007728D01*
X009243Y007873D01*
X009291Y007922D01*
X009388Y007922D01*
X009436Y007873D01*
X009291Y008023D02*
X009243Y008071D01*
X009388Y008120D02*
X009388Y008168D01*
X010445Y007882D02*
X010494Y007785D01*
X010591Y007688D01*
X010591Y007833D01*
X010639Y007882D01*
X010687Y007882D01*
X010736Y007833D01*
X010736Y007737D01*
X010687Y007688D01*
X010591Y007688D01*
X010591Y007587D02*
X010639Y007539D01*
X010639Y007394D01*
X010639Y007490D02*
X010736Y007587D01*
X010591Y007587D02*
X010494Y007587D01*
X010445Y007539D01*
X010445Y007394D01*
X010736Y007394D01*
X010376Y009628D02*
X010085Y009628D01*
X010085Y009774D01*
X010134Y009822D01*
X010231Y009822D01*
X010279Y009774D01*
X010279Y009628D01*
X010279Y009725D02*
X010376Y009822D01*
X010327Y009923D02*
X010376Y009971D01*
X010376Y010068D01*
X010327Y010117D01*
X010231Y010117D01*
X010182Y010068D01*
X010182Y010020D01*
X010231Y009923D01*
X010085Y009923D01*
X010085Y010117D01*
X009113Y010444D02*
X008823Y010444D01*
X008823Y010589D01*
X008871Y010637D01*
X008968Y010637D01*
X009016Y010589D01*
X009016Y010444D01*
X009016Y010540D02*
X009113Y010637D01*
X009065Y010738D02*
X009016Y010738D01*
X008968Y010787D01*
X008968Y010883D01*
X009016Y010932D01*
X009065Y010932D01*
X009113Y010883D01*
X009113Y010787D01*
X009065Y010738D01*
X008968Y010787D02*
X008920Y010738D01*
X008871Y010738D01*
X008823Y010787D01*
X008823Y010883D01*
X008871Y010932D01*
X008920Y010932D01*
X008968Y010883D01*
X008740Y011706D02*
X008789Y011755D01*
X008789Y011852D01*
X008740Y011900D01*
X008789Y012001D02*
X008498Y012001D01*
X008547Y011900D02*
X008498Y011852D01*
X008498Y011755D01*
X008547Y011706D01*
X008740Y011706D01*
X008644Y012001D02*
X008644Y012195D01*
X008740Y012296D02*
X008789Y012344D01*
X008789Y012441D01*
X008740Y012489D01*
X008692Y012489D01*
X008644Y012441D01*
X008644Y012393D01*
X008644Y012441D02*
X008595Y012489D01*
X008547Y012489D01*
X008498Y012441D01*
X008498Y012344D01*
X008547Y012296D01*
X008498Y012195D02*
X008789Y012195D01*
X009243Y012855D02*
X009243Y013000D01*
X009291Y013049D01*
X009388Y013049D01*
X009436Y013000D01*
X009436Y012855D01*
X009436Y012952D02*
X009533Y013049D01*
X009533Y013150D02*
X009485Y013150D01*
X009291Y013343D01*
X009243Y013343D01*
X009243Y013150D01*
X009243Y012855D02*
X009533Y012855D01*
X009701Y013769D02*
X009701Y013914D01*
X009750Y013962D01*
X009846Y013962D01*
X009895Y013914D01*
X009895Y013769D01*
X009895Y013865D02*
X009992Y013962D01*
X009992Y014063D02*
X009992Y014257D01*
X009992Y014160D02*
X009701Y014160D01*
X009798Y014063D01*
X009750Y014358D02*
X009701Y014406D01*
X009701Y014503D01*
X009750Y014551D01*
X009943Y014358D01*
X009992Y014406D01*
X009992Y014503D01*
X009943Y014551D01*
X009750Y014551D01*
X009750Y014358D02*
X009943Y014358D01*
X009992Y013769D02*
X009701Y013769D01*
X008849Y014455D02*
X008849Y014552D01*
X008800Y014600D01*
X008849Y014701D02*
X008558Y014701D01*
X008607Y014600D02*
X008558Y014552D01*
X008558Y014455D01*
X008607Y014406D01*
X008800Y014406D01*
X008849Y014455D01*
X008704Y014701D02*
X008704Y014895D01*
X008704Y014996D02*
X008704Y015189D01*
X008849Y015141D02*
X008558Y015141D01*
X008704Y014996D01*
X008849Y014895D02*
X008558Y014895D01*
X009992Y016280D02*
X009992Y016425D01*
X010040Y016474D01*
X010137Y016474D01*
X010185Y016425D01*
X010185Y016280D01*
X010185Y016377D02*
X010282Y016474D01*
X010234Y016575D02*
X010282Y016623D01*
X010282Y016720D01*
X010234Y016768D01*
X010040Y016768D01*
X009992Y016720D01*
X009992Y016623D01*
X010040Y016575D01*
X010089Y016575D01*
X010137Y016623D01*
X010137Y016768D01*
X010282Y016280D02*
X009992Y016280D01*
X010892Y015423D02*
X010892Y015229D01*
X010941Y015181D01*
X011037Y015181D01*
X011086Y015229D01*
X011187Y015229D02*
X011235Y015181D01*
X011332Y015181D01*
X011380Y015229D01*
X011380Y015278D01*
X011332Y015326D01*
X011187Y015326D01*
X011187Y015229D01*
X011187Y015326D02*
X011284Y015423D01*
X011380Y015471D01*
X011086Y015423D02*
X011037Y015471D01*
X010941Y015471D01*
X010892Y015423D01*
X013225Y014582D02*
X013225Y014388D01*
X013273Y014340D01*
X013370Y014340D01*
X013418Y014388D01*
X013418Y014485D01*
X013322Y014485D01*
X013418Y014582D02*
X013370Y014630D01*
X013273Y014630D01*
X013225Y014582D01*
X013520Y014630D02*
X013713Y014340D01*
X013713Y014630D01*
X013814Y014630D02*
X013959Y014630D01*
X014008Y014582D01*
X014008Y014388D01*
X013959Y014340D01*
X013814Y014340D01*
X013814Y014630D01*
X013520Y014630D02*
X013520Y014340D01*
X014905Y014485D02*
X015098Y014485D01*
X015002Y014582D02*
X015002Y014388D01*
X015200Y014388D02*
X015248Y014340D01*
X015345Y014340D01*
X015393Y014388D01*
X015393Y014437D01*
X015345Y014485D01*
X015296Y014485D01*
X015345Y014485D02*
X015393Y014533D01*
X015393Y014582D01*
X015345Y014630D01*
X015248Y014630D01*
X015200Y014582D01*
X015494Y014630D02*
X015494Y014437D01*
X015591Y014340D01*
X015688Y014437D01*
X015688Y014630D01*
X015789Y014582D02*
X015837Y014630D01*
X015934Y014630D01*
X015982Y014582D01*
X015982Y014533D01*
X015934Y014485D01*
X015982Y014437D01*
X015982Y014388D01*
X015934Y014340D01*
X015837Y014340D01*
X015789Y014388D01*
X015886Y014485D02*
X015934Y014485D01*
X016259Y012477D02*
X016259Y012283D01*
X016355Y012186D01*
X016452Y012283D01*
X016452Y012477D01*
X016553Y012477D02*
X016698Y012477D01*
X016747Y012428D01*
X016747Y012235D01*
X016698Y012186D01*
X016553Y012186D01*
X016553Y012477D01*
X016848Y012477D02*
X016848Y012186D01*
X016993Y012186D01*
X017042Y012235D01*
X017042Y012428D01*
X016993Y012477D01*
X016848Y012477D01*
X014210Y012404D02*
X014016Y012404D01*
X014161Y012550D01*
X014161Y012259D01*
X013915Y012308D02*
X013915Y012501D01*
X013721Y012308D01*
X013770Y012259D01*
X013867Y012259D01*
X013915Y012308D01*
X013915Y012501D02*
X013867Y012550D01*
X013770Y012550D01*
X013721Y012501D01*
X013721Y012308D01*
X013620Y012308D02*
X013620Y012501D01*
X013427Y012308D01*
X013475Y012259D01*
X013572Y012259D01*
X013620Y012308D01*
X013620Y012501D02*
X013572Y012550D01*
X013475Y012550D01*
X013427Y012501D01*
X013427Y012308D01*
X013326Y012308D02*
X013277Y012259D01*
X013180Y012259D01*
X013132Y012308D01*
X013229Y012404D02*
X013277Y012404D01*
X013326Y012356D01*
X013326Y012308D01*
X013277Y012404D02*
X013326Y012453D01*
X013326Y012501D01*
X013277Y012550D01*
X013180Y012550D01*
X013132Y012501D01*
X011462Y011611D02*
X011268Y011611D01*
X011268Y011466D01*
X011365Y011515D01*
X011413Y011515D01*
X011462Y011466D01*
X011462Y011369D01*
X011413Y011321D01*
X011317Y011321D01*
X011268Y011369D01*
X011167Y011369D02*
X011119Y011321D01*
X011022Y011321D01*
X010974Y011369D01*
X010974Y011563D01*
X011022Y011611D01*
X011119Y011611D01*
X011167Y011563D01*
X011318Y010529D02*
X011318Y010336D01*
X011173Y010481D01*
X011463Y010481D01*
X011415Y010235D02*
X011463Y010186D01*
X011463Y010089D01*
X011415Y010041D01*
X011221Y010041D01*
X011173Y010089D01*
X011173Y010186D01*
X011221Y010235D01*
X014795Y008207D02*
X014795Y008014D01*
X014941Y008014D01*
X014892Y008111D01*
X014892Y008159D01*
X014941Y008207D01*
X015037Y008207D01*
X015086Y008159D01*
X015086Y008062D01*
X015037Y008014D01*
X015086Y007913D02*
X015086Y007719D01*
X015086Y007816D02*
X014795Y007816D01*
X014892Y007719D01*
X014844Y007618D02*
X014941Y007618D01*
X014989Y007570D01*
X014989Y007425D01*
X014989Y007521D02*
X015086Y007618D01*
X015086Y007425D02*
X014795Y007425D01*
X014795Y007570D01*
X014844Y007618D01*
X016699Y009448D02*
X016893Y009448D01*
X016941Y009496D01*
X016941Y009593D01*
X016893Y009641D01*
X016941Y009742D02*
X016941Y009936D01*
X016941Y009839D02*
X016651Y009839D01*
X016748Y009742D01*
X016699Y009641D02*
X016651Y009593D01*
X016651Y009496D01*
X016699Y009448D01*
X019683Y011773D02*
X019731Y011725D01*
X021673Y011508D02*
X021673Y011314D01*
X021673Y011411D02*
X021963Y011411D01*
X021963Y011213D02*
X021673Y011213D01*
X021818Y011213D02*
X021818Y011020D01*
X021866Y010919D02*
X021915Y010919D01*
X021963Y010870D01*
X021963Y010773D01*
X021915Y010725D01*
X021818Y010773D02*
X021818Y010870D01*
X021866Y010919D01*
X021963Y011020D02*
X021673Y011020D01*
X021721Y010919D02*
X021673Y010870D01*
X021673Y010773D01*
X021721Y010725D01*
X021769Y010725D01*
X021818Y010773D01*
X021765Y011860D02*
X021765Y012005D01*
X021813Y012053D01*
X021910Y012053D01*
X021959Y012005D01*
X021959Y011860D01*
X022055Y011860D02*
X021765Y011860D01*
X021959Y011956D02*
X022055Y012053D01*
X022055Y012154D02*
X022055Y012348D01*
X022055Y012251D02*
X021765Y012251D01*
X021862Y012154D01*
X021862Y012449D02*
X021765Y012546D01*
X022055Y012546D01*
X022055Y012642D02*
X022055Y012449D01*
X007579Y018776D02*
X007288Y018776D01*
X007288Y018922D01*
X007337Y018970D01*
X007434Y018970D01*
X007482Y018922D01*
X007482Y018776D01*
X007482Y018873D02*
X007579Y018970D01*
X007627Y019071D02*
X007627Y019265D01*
X007530Y019366D02*
X007337Y019559D01*
X007530Y019559D01*
X007579Y019511D01*
X007579Y019414D01*
X007530Y019366D01*
X007337Y019366D01*
X007288Y019414D01*
X007288Y019511D01*
X007337Y019559D01*
X007288Y019660D02*
X007288Y019806D01*
X007337Y019854D01*
X007434Y019854D01*
X007482Y019806D01*
X007482Y019660D01*
X007579Y019660D02*
X007288Y019660D01*
X007482Y019757D02*
X007579Y019854D01*
X006209Y017176D02*
X005918Y017176D01*
X006064Y017030D01*
X006064Y017224D01*
X006209Y016929D02*
X006209Y016736D01*
X006209Y016833D02*
X005918Y016833D01*
X006015Y016736D01*
X005967Y016635D02*
X006160Y016635D01*
X006209Y016586D01*
X006209Y016489D01*
X006160Y016441D01*
X005967Y016635D01*
X005918Y016586D01*
X005918Y016489D01*
X005967Y016441D01*
X006160Y016441D01*
X006209Y016340D02*
X006209Y016146D01*
X006015Y016340D01*
X005967Y016340D01*
X005918Y016292D01*
X005918Y016195D01*
X005967Y016146D01*
X006398Y016206D02*
X006398Y016400D01*
X006398Y016303D02*
X006689Y016303D01*
X006640Y016501D02*
X006689Y016549D01*
X006689Y016646D01*
X006640Y016695D01*
X006447Y016695D01*
X006398Y016646D01*
X006398Y016549D01*
X006447Y016501D01*
X006640Y016501D01*
X006592Y016796D02*
X006592Y016941D01*
X006544Y016989D01*
X006447Y016989D01*
X006398Y016941D01*
X006398Y016796D01*
X006689Y016796D01*
D12*
X006113Y015282D02*
X005818Y015282D01*
X005818Y013116D01*
X006113Y013116D01*
X006113Y015282D01*
X008377Y015282D01*
X008377Y013116D01*
X006113Y013116D01*
X006113Y012526D02*
X005818Y012526D01*
X005818Y010360D01*
X006113Y010360D01*
X006113Y012526D01*
X008377Y012526D01*
X008377Y010360D01*
X006113Y010360D01*
X006113Y009770D02*
X005818Y009770D01*
X005818Y007604D01*
X006113Y007604D01*
X006113Y009770D01*
X008377Y009770D01*
X008377Y007604D01*
X006113Y007604D01*
X006136Y007251D02*
X005841Y007251D01*
X005841Y005085D01*
X006136Y005085D01*
X006136Y007251D01*
X008400Y007251D01*
X008400Y005085D01*
X006136Y005085D01*
X013014Y005395D02*
X014195Y005395D01*
X014195Y006576D01*
X013014Y006576D01*
X013014Y005395D01*
X013109Y006399D02*
X013111Y006414D01*
X013117Y006429D01*
X013126Y006441D01*
X013138Y006451D01*
X013152Y006458D01*
X013167Y006461D01*
X013183Y006460D01*
X013197Y006455D01*
X013211Y006447D01*
X013221Y006435D01*
X013229Y006422D01*
X013233Y006407D01*
X013233Y006391D01*
X013229Y006376D01*
X013221Y006363D01*
X013211Y006351D01*
X013197Y006343D01*
X013183Y006338D01*
X013167Y006337D01*
X013152Y006340D01*
X013138Y006347D01*
X013126Y006357D01*
X013117Y006369D01*
X013111Y006384D01*
X013109Y006399D01*
X017589Y005252D02*
X019518Y005252D01*
X019518Y007614D01*
X017589Y007614D01*
X017589Y005252D01*
X018621Y005546D02*
X018623Y005567D01*
X018629Y005586D01*
X018638Y005605D01*
X018650Y005621D01*
X018666Y005635D01*
X018683Y005646D01*
X018702Y005654D01*
X018723Y005658D01*
X018743Y005658D01*
X018764Y005654D01*
X018783Y005646D01*
X018800Y005635D01*
X018816Y005621D01*
X018828Y005605D01*
X018837Y005586D01*
X018843Y005567D01*
X018845Y005546D01*
X018843Y005525D01*
X018837Y005506D01*
X018828Y005487D01*
X018816Y005471D01*
X018800Y005457D01*
X018783Y005446D01*
X018764Y005438D01*
X018743Y005434D01*
X018723Y005434D01*
X018702Y005438D01*
X018683Y005446D01*
X018666Y005457D01*
X018650Y005471D01*
X018638Y005487D01*
X018629Y005506D01*
X018623Y005525D01*
X018621Y005546D01*
X021642Y005774D02*
X021642Y006601D01*
X022430Y006601D01*
X022430Y005774D01*
X021642Y005774D01*
X021718Y005912D02*
X021720Y005927D01*
X021726Y005942D01*
X021735Y005954D01*
X021747Y005964D01*
X021761Y005971D01*
X021776Y005974D01*
X021792Y005973D01*
X021806Y005968D01*
X021820Y005960D01*
X021830Y005948D01*
X021838Y005935D01*
X021842Y005920D01*
X021842Y005904D01*
X021838Y005889D01*
X021830Y005876D01*
X021820Y005864D01*
X021806Y005856D01*
X021792Y005851D01*
X021776Y005850D01*
X021761Y005853D01*
X021747Y005860D01*
X021735Y005870D01*
X021726Y005882D01*
X021720Y005897D01*
X021718Y005912D01*
X014810Y010197D02*
X013078Y010197D01*
X013078Y012166D01*
X014810Y012166D01*
X014810Y010197D01*
X013187Y012008D02*
X013189Y012026D01*
X013195Y012044D01*
X013204Y012060D01*
X013216Y012073D01*
X013231Y012084D01*
X013248Y012092D01*
X013266Y012096D01*
X013284Y012096D01*
X013302Y012092D01*
X013319Y012084D01*
X013334Y012073D01*
X013346Y012060D01*
X013355Y012044D01*
X013361Y012026D01*
X013363Y012008D01*
X013361Y011990D01*
X013355Y011972D01*
X013346Y011956D01*
X013334Y011943D01*
X013319Y011932D01*
X013302Y011924D01*
X013284Y011920D01*
X013266Y011920D01*
X013248Y011924D01*
X013231Y011932D01*
X013216Y011943D01*
X013204Y011956D01*
X013195Y011972D01*
X013189Y011990D01*
X013187Y012008D01*
X018124Y012250D02*
X018124Y012525D01*
X018124Y012840D02*
X018124Y013116D01*
X018439Y013037D02*
X018441Y013049D01*
X018446Y013060D01*
X018455Y013069D01*
X018466Y013074D01*
X018478Y013076D01*
X018490Y013074D01*
X018501Y013069D01*
X018510Y013060D01*
X018515Y013049D01*
X018517Y013037D01*
X018515Y013025D01*
X018510Y013014D01*
X018501Y013005D01*
X018490Y013000D01*
X018478Y012998D01*
X018466Y013000D01*
X018455Y013005D01*
X018446Y013014D01*
X018441Y013025D01*
X018439Y013037D01*
X018400Y013431D02*
X018675Y013431D01*
X018990Y013431D02*
X019266Y013431D01*
X019541Y013116D02*
X019541Y012840D01*
X019541Y012525D02*
X019541Y012250D01*
X019266Y011935D02*
X018400Y011935D01*
X019480Y020076D02*
X006409Y020076D01*
X006409Y022044D01*
X019480Y022044D01*
X019480Y020076D01*
X019450Y020280D02*
X019751Y020580D01*
X019751Y020655D01*
X019675Y020730D01*
X019525Y020730D01*
X019450Y020655D01*
X019450Y020280D02*
X019751Y020280D01*
X019911Y020355D02*
X019986Y020280D01*
X020136Y020280D01*
X020211Y020355D01*
X020211Y020505D01*
X020136Y020580D01*
X020061Y020580D01*
X019911Y020505D01*
X019911Y020730D01*
X020211Y020730D01*
X020136Y021461D02*
X019986Y021461D01*
X019911Y021536D01*
X019911Y021686D01*
X020136Y021686D01*
X020211Y021611D01*
X020211Y021536D01*
X020136Y021461D01*
X019911Y021686D02*
X020061Y021836D01*
X020211Y021911D01*
X019751Y021836D02*
X019675Y021911D01*
X019525Y021911D01*
X019450Y021836D01*
X019751Y021836D02*
X019751Y021761D01*
X019450Y021461D01*
X019751Y021461D01*
X007324Y020922D02*
X007321Y020558D01*
X007324Y020194D01*
X006596Y020194D01*
X006596Y020922D01*
X007324Y020922D01*
D13*
X008460Y020058D02*
X008460Y018058D01*
X012460Y018058D01*
X012460Y020058D01*
X008460Y020058D01*
X019944Y017070D02*
X019944Y016870D01*
X020384Y016870D01*
X020384Y017070D01*
X019944Y017070D01*
X020384Y017200D02*
X020384Y015240D01*
X021944Y015240D01*
X021944Y017200D01*
X021044Y017200D01*
X020384Y017200D01*
X020384Y016570D02*
X019944Y016570D01*
X019944Y016370D01*
X020384Y016370D01*
X020384Y016570D01*
X020384Y016070D02*
X019944Y016070D01*
X019944Y015870D01*
X020384Y015870D01*
X020384Y016070D01*
X020384Y015570D02*
X019944Y015570D01*
X019944Y015370D01*
X020384Y015370D01*
X020384Y015570D01*
X021944Y015570D02*
X021944Y015370D01*
X022384Y015370D01*
X022384Y015570D01*
X021944Y015570D01*
X021944Y015870D02*
X022384Y015870D01*
X022384Y016070D01*
X021944Y016070D01*
X021944Y015870D01*
X021944Y016370D02*
X022384Y016370D01*
X022384Y016570D01*
X021944Y016570D01*
X021944Y016370D01*
X021944Y016870D02*
X022384Y016870D01*
X022384Y017070D01*
X021944Y017070D01*
X021944Y016870D01*
X022278Y010380D02*
X022261Y010378D01*
X022245Y010373D01*
X022231Y010365D01*
X022219Y010354D01*
X022209Y010340D01*
X022202Y010325D01*
X022198Y010308D01*
X022198Y010292D01*
X022202Y010275D01*
X022209Y010260D01*
X022219Y010246D01*
X022231Y010235D01*
X022245Y010227D01*
X022261Y010222D01*
X022278Y010220D01*
X022295Y010222D01*
X022311Y010227D01*
X022325Y010235D01*
X022337Y010246D01*
X022347Y010260D01*
X022354Y010275D01*
X022358Y010292D01*
X022358Y010308D01*
X022354Y010325D01*
X022347Y010340D01*
X022337Y010354D01*
X022325Y010365D01*
X022311Y010373D01*
X022295Y010378D01*
X022278Y010380D01*
D14*
X019774Y008494D03*
X018824Y008488D03*
X022343Y008072D03*
X015081Y006744D03*
X012116Y006713D03*
X017360Y013299D03*
X020209Y013324D03*
X021950Y013275D03*
X019042Y017622D03*
D15*
X016733Y008832D02*
X016709Y008832D01*
X016731Y006451D02*
X016707Y006451D01*
D16*
X021240Y008048D03*
X021247Y009675D03*
X020333Y017891D03*
D17*
X017410Y014508D02*
X017190Y014508D01*
X017300Y014398D01*
X017300Y014545D01*
X017410Y014324D02*
X017410Y014177D01*
X017410Y014250D02*
X017190Y014250D01*
X017263Y014177D01*
X017226Y014103D02*
X017300Y014103D01*
X017337Y014066D01*
X017337Y013956D01*
X017410Y013956D02*
X017190Y013956D01*
X017190Y014066D01*
X017226Y014103D01*
X017337Y014029D02*
X017410Y014103D01*
X007060Y017801D02*
X006987Y017875D01*
X006840Y017875D01*
X006840Y017949D02*
X006840Y018059D01*
X006877Y018096D01*
X007024Y018096D01*
X007060Y018059D01*
X007060Y017949D01*
X006840Y017949D01*
X006840Y018170D02*
X006840Y018280D01*
X006877Y018317D01*
X007024Y018317D01*
X007060Y018280D01*
X007060Y018170D01*
X006840Y018170D01*
X006914Y018391D02*
X006840Y018464D01*
X007060Y018464D01*
X007060Y018391D02*
X007060Y018538D01*
X006640Y018581D02*
X006567Y018655D01*
X006420Y018655D01*
X006420Y018729D02*
X006420Y018839D01*
X006457Y018876D01*
X006604Y018876D01*
X006640Y018839D01*
X006640Y018729D01*
X006420Y018729D01*
X006420Y018950D02*
X006420Y019060D01*
X006457Y019097D01*
X006604Y019097D01*
X006640Y019060D01*
X006640Y018950D01*
X006420Y018950D01*
X006640Y018581D02*
X006567Y018508D01*
X006420Y018508D01*
X006840Y017728D02*
X006987Y017728D01*
X007060Y017801D01*
M02*
