G75*
%MOIN*%
%OFA0B0*%
%FSLAX24Y24*%
%IPPOS*%
%LPD*%
%AMOC8*
5,1,8,0,0,1.08239X$1,22.5*
%
%ADD10C,0.0000*%
%ADD11C,0.0030*%
D10*
X005744Y004971D02*
X023460Y004971D01*
X023460Y017570D01*
X021492Y017570D01*
X021492Y022688D01*
X005744Y022688D01*
X005744Y004971D01*
X015484Y007674D02*
X015486Y007721D01*
X015492Y007768D01*
X015501Y007814D01*
X015515Y007859D01*
X015532Y007903D01*
X015553Y007946D01*
X015577Y007986D01*
X015604Y008025D01*
X015635Y008061D01*
X015668Y008094D01*
X015704Y008125D01*
X015743Y008152D01*
X015783Y008176D01*
X015826Y008197D01*
X015870Y008214D01*
X015915Y008228D01*
X015961Y008237D01*
X016008Y008243D01*
X016055Y008245D01*
X016102Y008243D01*
X016149Y008237D01*
X016195Y008228D01*
X016240Y008214D01*
X016284Y008197D01*
X016327Y008176D01*
X016367Y008152D01*
X016406Y008125D01*
X016442Y008094D01*
X016475Y008061D01*
X016506Y008025D01*
X016533Y007986D01*
X016557Y007946D01*
X016578Y007903D01*
X016595Y007859D01*
X016609Y007814D01*
X016618Y007768D01*
X016624Y007721D01*
X016626Y007674D01*
X016624Y007627D01*
X016618Y007580D01*
X016609Y007534D01*
X016595Y007489D01*
X016578Y007445D01*
X016557Y007402D01*
X016533Y007362D01*
X016506Y007323D01*
X016475Y007287D01*
X016442Y007254D01*
X016406Y007223D01*
X016367Y007196D01*
X016327Y007172D01*
X016284Y007151D01*
X016240Y007134D01*
X016195Y007120D01*
X016149Y007111D01*
X016102Y007105D01*
X016055Y007103D01*
X016008Y007105D01*
X015961Y007111D01*
X015915Y007120D01*
X015870Y007134D01*
X015826Y007151D01*
X015783Y007172D01*
X015743Y007196D01*
X015704Y007223D01*
X015668Y007254D01*
X015635Y007287D01*
X015604Y007323D01*
X015577Y007362D01*
X015553Y007402D01*
X015532Y007445D01*
X015515Y007489D01*
X015501Y007534D01*
X015492Y007580D01*
X015486Y007627D01*
X015484Y007674D01*
D11*
X007489Y015606D02*
X007199Y015606D01*
X007199Y015752D01*
X007247Y015800D01*
X007295Y015800D01*
X007344Y015752D01*
X007344Y015606D01*
X007489Y015606D02*
X007489Y015752D01*
X007441Y015800D01*
X007392Y015800D01*
X007344Y015752D01*
X007441Y015901D02*
X007247Y015901D01*
X007199Y015949D01*
X007199Y016046D01*
X007247Y016095D01*
X007441Y016095D01*
X007489Y016046D01*
X007489Y015949D01*
X007441Y015901D01*
X007489Y016196D02*
X007489Y016389D01*
X007489Y016293D02*
X007199Y016293D01*
X007199Y016587D02*
X007489Y016587D01*
X007489Y016490D02*
X007489Y016684D01*
X007441Y016785D02*
X007247Y016785D01*
X007199Y016833D01*
X007199Y016930D01*
X007247Y016979D01*
X007441Y016979D01*
X007489Y016930D01*
X007489Y016833D01*
X007441Y016785D01*
X007739Y016809D02*
X007739Y016616D01*
X007739Y016713D02*
X008029Y016713D01*
X007932Y016616D01*
X007981Y016515D02*
X007787Y016321D01*
X007739Y016369D01*
X007739Y016466D01*
X007787Y016515D01*
X007981Y016515D01*
X008029Y016466D01*
X008029Y016369D01*
X007981Y016321D01*
X007787Y016321D01*
X007739Y016220D02*
X007739Y016026D01*
X007932Y016220D01*
X007981Y016220D01*
X008029Y016172D01*
X008029Y016075D01*
X007981Y016026D01*
X007884Y016910D02*
X007884Y017104D01*
X008029Y017056D02*
X007884Y016910D01*
X007739Y017056D02*
X008029Y017056D01*
X007489Y017080D02*
X007392Y017176D01*
X007489Y017273D01*
X007199Y017273D01*
X007199Y017080D02*
X007489Y017080D01*
M02*
